<svg xmlns="http://www.w3.org/2000/svg" width="1920" height="384.428" viewBox="0 0 1920 384.428">
  <g id="Group_25" data-name="Group 25" transform="translate(0 -695.572)">
    <g id="Group_5" data-name="Group 5" transform="translate(0 800.141)">
      <g id="Group_2" data-name="Group 2" transform="translate(1368.424)">
        <g id="Group_1" data-name="Group 1">
          <rect id="Rectangle_179" data-name="Rectangle 179" width="551.576" height="129.935" fill="#97c161"/>
          <path id="Path_49" data-name="Path 49" d="M1920,822.371h-32.149v26.654h-85.307V867.35H1678.709v46.645h-55.037v-64.97h-71.55v23.322H1458.56v33.318h-90.136v24.41H1920Z" transform="translate(-1368.424 -800.141)" fill="#7ea251"/>
          <rect id="Rectangle_180" data-name="Rectangle 180" width="551.576" height="149.924" transform="translate(0 129.935)" fill="#754a30"/>
          <path id="Path_50" data-name="Path 50" d="M1920,1045.6V973.968h-1.879v24.988h-68.8v-28.32h-63.293V947.313h-24.768V965.64H1739.25v26.654h-46.782V965.64h-60.541v33.317h-46.781V955.644h-88.061v18.325h-74.3v29.987h-54.362v29.986h65.369V1080h35.774v-61.053h52.286v29.987h38.526v-19.991h85.307V1055.6h41.278v-24.988h79.8V1060.6h60.541V1038.94H1879.6v6.663Z" transform="translate(-1368.424 -800.141)" fill="#8c5739"/>
        </g>
        <rect id="Rectangle_181" data-name="Rectangle 181" width="36.463" height="21.657" transform="translate(391.464 194.069)" fill="#754a30"/>
        <rect id="Rectangle_182" data-name="Rectangle 182" width="36.463" height="21.657" transform="translate(473.333 211.006)" fill="#754a30"/>
        <rect id="Rectangle_183" data-name="Rectangle 183" width="36.463" height="21.657" transform="translate(318.54 215.725)" fill="#754a30"/>
        <rect id="Rectangle_184" data-name="Rectangle 184" width="36.463" height="21.657" transform="translate(191.955 217.287)" fill="#754a30"/>
        <rect id="Rectangle_185" data-name="Rectangle 185" width="36.463" height="21.658" transform="translate(127.744 172.41)" fill="#754a30"/>
        <rect id="Rectangle_186" data-name="Rectangle 186" width="36.461" height="21.657" transform="translate(32.347 203.23)" fill="#754a30"/>
        <rect id="Rectangle_187" data-name="Rectangle 187" width="44.03" height="21.658" transform="translate(379.081 109.943)" fill="#754a30"/>
        <rect id="Rectangle_188" data-name="Rectangle 188" width="44.03" height="21.657" transform="translate(167.188 119.106)" fill="#754a30"/>
        <rect id="Rectangle_189" data-name="Rectangle 189" width="44.03" height="21.657" transform="translate(335.051 120.772)" fill="#7ea251"/>
        <rect id="Rectangle_190" data-name="Rectangle 190" width="44.031" height="21.657" transform="translate(465.765 119.685)" fill="#7ea251"/>
        <rect id="Rectangle_191" data-name="Rectangle 191" width="44.03" height="21.658" transform="translate(242.865 125.352)" fill="#7ea251"/>
        <rect id="Rectangle_192" data-name="Rectangle 192" width="44.03" height="21.657" transform="translate(70.872 119.106)" fill="#7ea251"/>
      </g>
      <g id="Group_4" data-name="Group 4">
        <g id="Group_3" data-name="Group 3">
          <rect id="Rectangle_193" data-name="Rectangle 193" width="1402.99" height="129.935" fill="#97c161"/>
          <path id="Path_51" data-name="Path 51" d="M1362.483,834.031v19.991h-27.518v19.991h-63.293v16.659h-60.541v-28.32h-27.519v-8.33h-55.037v-9.995h-49.534v24.988h-24.766v36.65h-27.519v-36.65H982.725V835.7H952.456v46.646H853.389V837.363H762.577v33.318H713.043v16.659H649.75V865.684H627.736v10H564.442V822.371H506.653v26.654H421.345V867.35H297.511V914H242.474V849.025H170.926v23.322H77.362v33.318H0v24.41H1402.99V834.031Z" transform="translate(0 -800.141)" fill="#7ea251"/>
          <rect id="Rectangle_194" data-name="Rectangle 194" width="1402.99" height="149.924" transform="translate(0 129.935)" fill="#754a30"/>
          <path id="Path_52" data-name="Path 52" d="M1373.491,992.293V945.647h-77.053V972.3h-85.307V930.076H1180.86V965.64h-38.526v13.326H1092.8V965.64h-74.3V985.63H946.951V930.076H933.192v32.231H847.885v34.984H743.314V970.637h-68.8V955.644H652.5v51.643H575.449V973.968H536.924v24.988h-68.8v-28.32H404.834V947.313H380.068V965.64H358.052v26.654H311.27V965.64H250.729v33.317H203.949V955.644h-88.06v18.325h-74.3v29.987H0v29.986H52.6V1080H88.371v-61.053h52.285v29.987h38.526v-19.991h85.307V1055.6h41.279v-24.988h79.8V1060.6h60.541V1038.94H498.4v6.663h77.051v-16.659H710.291v-10H878.155v36.65h24.766v-19.991h134.842V1080h52.285v-72.713h55.038v34.984h41.278v-24.99h96.315v49.978h66.045V1045.6h8.255v-38.316h46.011V992.293Z" transform="translate(0 -800.141)" fill="#8c5739"/>
        </g>
        <path id="Path_53" data-name="Path 53" d="M1350.859,958.389h13.606v-.38Q1357.658,958.133,1350.859,958.389Z" transform="translate(0 -800.141)" fill="#986f58"/>
        <rect id="Rectangle_195" data-name="Rectangle 195" width="44.03" height="21.658" transform="translate(1224.89 109.943)" fill="#754a30"/>
        <rect id="Rectangle_196" data-name="Rectangle 196" width="44.03" height="21.658" transform="translate(787.344 109.943)" fill="#754a30"/>
        <rect id="Rectangle_197" data-name="Rectangle 197" width="44.031" height="21.658" transform="translate(556.186 109.943)" fill="#754a30"/>
        <rect id="Rectangle_198" data-name="Rectangle 198" width="36.461" height="21.657" transform="translate(378.692 194.069)" fill="#754a30"/>
        <rect id="Rectangle_199" data-name="Rectangle 199" width="36.463" height="21.657" transform="translate(460.559 211.006)" fill="#754a30"/>
        <rect id="Rectangle_200" data-name="Rectangle 200" width="36.463" height="21.657" transform="translate(683.002 181.019)" fill="#754a30"/>
        <rect id="Rectangle_201" data-name="Rectangle 201" width="36.461" height="21.657" transform="translate(646.999 212.949)" fill="#754a30"/>
        <rect id="Rectangle_202" data-name="Rectangle 202" width="36.463" height="21.657" transform="translate(783.215 187.959)" fill="#754a30"/>
        <rect id="Rectangle_203" data-name="Rectangle 203" width="36.461" height="21.657" transform="translate(893.291 194.069)" fill="#754a30"/>
        <rect id="Rectangle_204" data-name="Rectangle 204" width="36.461" height="21.657" transform="translate(955.208 204.896)" fill="#754a30"/>
        <rect id="Rectangle_205" data-name="Rectangle 205" width="36.461" height="21.657" transform="translate(1041.203 177.132)" fill="#754a30"/>
        <rect id="Rectangle_206" data-name="Rectangle 206" width="36.463" height="21.657" transform="translate(1135.798 184.628)" fill="#754a30"/>
        <rect id="Rectangle_207" data-name="Rectangle 207" width="36.463" height="21.657" transform="translate(1282.564 177.132)" fill="#754a30"/>
        <rect id="Rectangle_208" data-name="Rectangle 208" width="36.463" height="21.657" transform="translate(1310.541 215.725)" fill="#754a30"/>
        <rect id="Rectangle_209" data-name="Rectangle 209" width="36.463" height="21.657" transform="translate(1224.89 204.896)" fill="#754a30"/>
        <rect id="Rectangle_210" data-name="Rectangle 210" width="36.463" height="21.657" transform="translate(1067.062 240.158)" fill="#754a30"/>
        <rect id="Rectangle_211" data-name="Rectangle 211" width="36.461" height="21.657" transform="translate(305.767 215.725)" fill="#754a30"/>
        <rect id="Rectangle_212" data-name="Rectangle 212" width="36.463" height="21.657" transform="translate(179.181 217.287)" fill="#754a30"/>
        <rect id="Rectangle_213" data-name="Rectangle 213" width="36.463" height="21.658" transform="translate(114.97 172.41)" fill="#754a30"/>
        <rect id="Rectangle_214" data-name="Rectangle 214" width="36.463" height="21.657" transform="translate(19.573 203.23)" fill="#754a30"/>
        <rect id="Rectangle_215" data-name="Rectangle 215" width="44.031" height="21.658" transform="translate(366.307 109.943)" fill="#754a30"/>
        <rect id="Rectangle_216" data-name="Rectangle 216" width="44.03" height="21.657" transform="translate(919.433 119.685)" fill="#754a30"/>
        <rect id="Rectangle_217" data-name="Rectangle 217" width="44.03" height="21.657" transform="translate(1063.278 119.106)" fill="#754a30"/>
        <rect id="Rectangle_218" data-name="Rectangle 218" width="44.03" height="21.657" transform="translate(154.414 119.106)" fill="#754a30"/>
        <rect id="Rectangle_219" data-name="Rectangle 219" width="44.028" height="21.657" transform="translate(322.279 120.772)" fill="#7ea251"/>
        <rect id="Rectangle_220" data-name="Rectangle 220" width="44.03" height="21.657" transform="translate(452.992 119.685)" fill="#7ea251"/>
        <rect id="Rectangle_221" data-name="Rectangle 221" width="44.03" height="21.658" transform="translate(624.984 125.352)" fill="#7ea251"/>
        <rect id="Rectangle_222" data-name="Rectangle 222" width="44.03" height="21.657" transform="translate(714.419 119.685)" fill="#7ea251"/>
        <rect id="Rectangle_223" data-name="Rectangle 223" width="44.03" height="21.658" transform="translate(875.403 125.352)" fill="#7ea251"/>
        <rect id="Rectangle_224" data-name="Rectangle 224" width="44.031" height="21.658" transform="translate(997.172 125.352)" fill="#7ea251"/>
        <rect id="Rectangle_225" data-name="Rectangle 225" width="44.03" height="21.658" transform="translate(1132.014 125.352)" fill="#7ea251"/>
        <rect id="Rectangle_226" data-name="Rectangle 226" width="44.028" height="21.657" transform="translate(1294.375 112.443)" fill="#7ea251"/>
        <rect id="Rectangle_227" data-name="Rectangle 227" width="44.03" height="21.658" transform="translate(230.091 125.352)" fill="#7ea251"/>
        <rect id="Rectangle_228" data-name="Rectangle 228" width="44.031" height="21.657" transform="translate(58.098 119.106)" fill="#7ea251"/>
      </g>
    </g>
    <g id="Group_24" data-name="Group 24" transform="translate(0 695.572)">
      <g id="Group_6" data-name="Group 6" transform="translate(0 24.022)">
        <path id="Path_54" data-name="Path 54" d="M119.7,812.6v-3.321h-3.95v-3.323H111.8v-6.643h-3.952V776.064H103.9v3.323H99.949v3.321h-23.7v-3.321H72.3v-3.323h-3.95v-3.321H64.393v3.321h-3.95v6.643h-3.95v3.323H52.541v3.321h-3.95v3.323h-7.9v3.321H9.085v-3.321h-7.9v-3.323H0v29.9H119.7v-3.321h3.952V812.6Z" transform="translate(0 -719.594)" fill="#7ea251"/>
        <path id="Path_55" data-name="Path 55" d="M131.555,782.708v-6.643h-3.95v-3.321h-3.95v-3.323H119.7V766.1H107.851v-9.966H103.9v-9.966H99.949v-3.321H96v-3.321h-3.95V736.2H88.1v-3.323h-31.6V736.2H52.541V729.56h-3.95v-3.323h-7.9v-3.321h-3.95v-3.323h-23.7v3.323h-7.9v3.321H1.183v3.323H0v59.791H1.183v3.323h7.9v3.321h31.6v-3.321h7.9v-3.323h3.95V786.03h3.952v-3.323h3.95v-6.643h3.95v-3.321h3.952v3.321H72.3v3.323h3.95v3.321h23.7v-3.321H103.9v-3.323h3.95v23.253H111.8v6.643h3.95v3.323h3.95V812.6h3.952v3.323h3.95v-6.643h3.95v-3.323h3.952V782.708Z" transform="translate(0 -719.594)" fill="#97c161"/>
      </g>
      <g id="Group_7" data-name="Group 7" transform="translate(91.483 24.022)">
        <path id="Path_56" data-name="Path 56" d="M273.215,812.6v-3.321h-3.95v-3.323h-3.952v-6.643h-3.95V776.064h-3.95v3.323h-3.952v3.321h-23.7v-3.321h-3.95v-3.323h-3.95v-3.321h-3.952v3.321h-3.95v6.643h-3.95v3.323h-3.952v3.321H202.1v3.323h-7.9V796H162.6v-3.323h-7.9v-3.323h-3.95V786.03h-3.952v-3.323h-7.9v3.323h-3.95v3.321h-23.7V786.03h-3.95v-3.323h-3.952v-6.643h-3.95V762.777h-3.95v9.966H91.483v19.93h3.952v9.966h3.95v6.643h3.95V812.6h3.952v3.323h7.9v3.321H273.215v-3.321h3.95V812.6Z" transform="translate(-91.483 -719.594)" fill="#7ea251"/>
        <path id="Path_57" data-name="Path 57" d="M285.068,782.708v-6.643h-3.95v-3.321h-3.952v-3.323h-3.95V766.1H261.363v-9.966h-3.95v-9.966h-3.952v-3.321h-3.95v-3.321h-3.95V736.2H241.61v-3.323h-31.6V736.2h-3.952V729.56H202.1v-3.323h-7.9v-3.321h-3.95v-3.323h-23.7v3.323h-7.9v3.321H154.7v3.323h-3.95v3.321h-3.952V736.2h-3.95v9.964H115.187v3.323h-7.9v3.323h-3.952v3.321h-3.95v19.93h3.95v6.643h3.952v3.323h3.95v3.321h23.7V786.03h3.95v-3.323h7.9v3.323h3.952v3.321h3.95v3.323h7.9V796H194.2v-3.323h7.9v-3.323h3.95V786.03h3.952v-3.323h3.95v-6.643h3.95v-3.321h3.952v3.321h3.95v3.323h3.95v3.321h23.7v-3.321h3.952v-3.323h3.95v23.253h3.95v6.643h3.952v3.323h3.95V812.6h3.95v3.323h3.952v-6.643h3.95v-3.323h3.95V782.708Z" transform="translate(-91.483 -719.594)" fill="#97c161"/>
      </g>
      <g id="Group_8" data-name="Group 8" transform="translate(244.995 24.022)">
        <path id="Path_58" data-name="Path 58" d="M426.728,812.6v-3.321h-3.95v-3.323h-3.952v-6.643h-3.95V776.064h-3.952v3.323h-3.95v3.321h-23.7v-3.321h-3.95v-3.323h-3.95v-3.321h-3.952v3.321h-3.95v6.643h-3.95v3.323h-3.952v3.321h-3.95v3.323h-7.9V796H316.108v-3.323h-7.9v-3.323h-3.952V786.03h-3.95v-3.323h-7.9v3.323h-3.95v3.321h-23.7V786.03H260.8v-3.323h-3.95v-6.643H252.9V762.777h-3.95v9.966H245v19.93h3.952v9.966h3.95v6.643h3.95V812.6h3.95v3.323h7.9v3.321H426.728v-3.321h3.95V812.6Z" transform="translate(-244.995 -719.594)" fill="#7ea251"/>
        <path id="Path_59" data-name="Path 59" d="M438.58,782.708v-6.643h-3.95v-3.321h-3.952v-3.323h-3.95V766.1H414.876v-9.966h-3.952v-9.966h-3.95v-3.321h-3.95v-3.321h-3.95V736.2h-3.952v-3.323h-31.6V736.2h-3.952V729.56h-3.95v-3.323h-7.9v-3.321h-3.95v-3.323h-23.7v3.323h-7.9v3.321h-3.95v3.323h-3.952v3.321h-3.95V736.2h-3.95v9.964H268.7v3.323h-7.9v3.323h-3.95v3.321H252.9v19.93h3.95v6.643h3.95v3.323h3.952v3.321h23.7V786.03h3.95v-3.323h7.9v3.323h3.95v3.321h3.952v3.323h7.9V796h31.606v-3.323h7.9v-3.323h3.95V786.03h3.952v-3.323h3.95v-6.643h3.95v-3.321h3.952v3.321h3.95v3.323h3.95v3.321h23.7v-3.321h3.95v-3.323h3.952v23.253h3.95v6.643h3.952v3.323h3.95V812.6h3.95v3.323h3.952v-6.643h3.95v-3.323h3.95V782.708Z" transform="translate(-244.995 -719.594)" fill="#97c161"/>
      </g>
      <g id="Group_9" data-name="Group 9" transform="translate(398.508 24.022)">
        <path id="Path_60" data-name="Path 60" d="M580.24,812.6v-3.321h-3.952v-3.323h-3.95v-6.643h-3.95V776.064h-3.952v3.323h-3.95v3.321h-23.7v-3.321h-3.95v-3.323H528.88v-3.321h-3.95v3.321h-3.95v6.643h-3.952v3.323h-3.95v3.321h-3.95v3.323h-7.9V796H469.62v-3.323h-7.9v-3.323h-3.952V786.03h-3.95v-3.323h-7.9v3.323h-3.95v3.321h-23.7V786.03h-3.95v-3.323H410.36v-6.643h-3.95V762.777h-3.95v9.966h-3.952v19.93h3.952v9.966h3.95v6.643h3.95V812.6h3.952v3.323h7.9v3.321H580.24v-3.321h3.95V812.6Z" transform="translate(-398.508 -719.594)" fill="#7ea251"/>
        <path id="Path_61" data-name="Path 61" d="M592.092,782.708v-6.643h-3.95v-3.321H584.19v-3.323h-3.95V766.1H568.388v-9.966h-3.952v-9.966h-3.95v-3.321h-3.95v-3.321h-3.95V736.2h-3.952v-3.323H517.028V736.2h-3.95V729.56h-3.95v-3.323h-7.9v-3.321h-3.95v-3.323h-23.7v3.323h-7.9v3.321h-3.95v3.323h-3.952v3.321h-3.95V736.2h-3.95v9.964H422.212v3.323h-7.9v3.323H410.36v3.321h-3.95v19.93h3.95v6.643h3.952v3.323h3.95v3.321h23.7V786.03h3.95v-3.323h7.9v3.323h3.95v3.321h3.952v3.323h7.9V796h31.606v-3.323h7.9v-3.323h3.95V786.03h3.95v-3.323h3.952v-6.643h3.95v-3.321h3.95v3.321h3.952v3.323h3.95v3.321h23.7v-3.321h3.95v-3.323h3.952v23.253h3.95v6.643h3.95v3.323h3.952V812.6h3.95v3.323h3.952v-6.643h3.95v-3.323h3.95V782.708Z" transform="translate(-398.508 -719.594)" fill="#97c161"/>
      </g>
      <g id="Group_10" data-name="Group 10" transform="translate(552.02 24.022)">
        <path id="Path_62" data-name="Path 62" d="M733.752,812.6v-3.321H729.8v-3.323h-3.95v-6.643H721.9V776.064h-3.952v3.323H714v3.321h-23.7v-3.321h-3.95v-3.323h-3.952v-3.321h-3.95v3.321H674.49v6.643h-3.95v3.323h-3.95v3.321h-3.95v3.323h-7.9V796H623.132v-3.323h-7.9v-3.323h-3.95V786.03h-3.95v-3.323h-7.9v3.323h-3.95v3.321h-23.7V786.03h-3.952v-3.323h-3.95v-6.643h-3.95V762.777H555.97v9.966h-3.95v19.93h3.95v9.966h3.952v6.643h3.95V812.6h3.95v3.323h7.9v3.321H733.752v-3.321h3.95V812.6Z" transform="translate(-552.02 -719.594)" fill="#7ea251"/>
        <path id="Path_63" data-name="Path 63" d="M745.6,782.708v-6.643h-3.952v-3.321H737.7v-3.323h-3.95V766.1H721.9v-9.966h-3.952v-9.966H714v-3.321h-3.95v-3.321H706.1V736.2h-3.95v-3.323H670.54V736.2h-3.95V729.56h-3.95v-3.323h-7.9v-3.321h-3.952v-3.323h-23.7v3.323h-7.9v3.321H615.23v3.323h-3.95v3.321h-3.95V736.2h-3.952v9.964H575.724v3.323h-7.9v3.323h-3.95v3.321h-3.95v19.93h3.95v6.643h3.95v3.323h3.952v3.321h23.7V786.03h3.95v-3.323h7.9v3.323h3.95v3.321h3.95v3.323h7.9V796h31.606v-3.323h7.9v-3.323h3.95V786.03h3.95v-3.323h3.95v-6.643h3.952v-3.321h3.95v3.321h3.952v3.323h3.95v3.321H714v-3.321h3.95v-3.323H721.9v23.253h3.95v6.643h3.95v3.323h3.952V812.6h3.95v3.323h3.95v-6.643H745.6v-3.323h3.95V782.708Z" transform="translate(-552.02 -719.594)" fill="#97c161"/>
      </g>
      <g id="Group_11" data-name="Group 11" transform="translate(705.532 24.022)">
        <path id="Path_64" data-name="Path 64" d="M887.264,812.6v-3.321h-3.952v-3.323h-3.95v-6.643h-3.952V776.064h-3.95v3.323h-3.95v3.321h-23.7v-3.321h-3.95v-3.323H835.9v-3.321h-3.95v3.321H828v6.643h-3.95v3.323H820.1v3.321H816.15v3.323h-7.9V796H776.644v-3.323h-7.9v-3.323h-3.95V786.03h-3.95v-3.323h-7.9v3.323h-3.95v3.321h-23.7V786.03h-3.952v-3.323h-3.95v-6.643h-3.95V762.777h-3.952v9.966h-3.95v19.93h3.95v9.966h3.952v6.643h3.95V812.6h3.95v3.323h7.9v3.321H887.264v-3.321h3.95V812.6Z" transform="translate(-705.532 -719.594)" fill="#7ea251"/>
        <path id="Path_65" data-name="Path 65" d="M899.115,782.708v-6.643h-3.95v-3.321h-3.95v-3.323h-3.95V766.1H875.411v-9.966h-3.95v-9.966h-3.95v-3.321h-3.95v-3.321h-3.952V736.2h-3.95v-3.323H824.052V736.2H820.1V729.56H816.15v-3.323h-7.9v-3.321H804.3v-3.323h-23.7v3.323h-7.9v3.321h-3.952v3.323h-3.95v3.321h-3.95V736.2H756.89v9.964H729.236v3.323h-7.9v3.323h-3.95v3.321h-3.95v19.93h3.95v6.643h3.95v3.323h3.952v3.321h23.7V786.03h3.95v-3.323h7.9v3.323h3.95v3.321h3.95v3.323h7.9V796H808.25v-3.323h7.9v-3.323H820.1V786.03h3.95v-3.323H828v-6.643h3.952v-3.321h3.95v3.321h3.952v3.323h3.95v3.321h23.7v-3.321h3.95v-3.323h3.95v23.253h3.952v6.643h3.95v3.323h3.952V812.6h3.95v3.323h3.95v-6.643h3.95v-3.323h3.952V782.708Z" transform="translate(-705.532 -719.594)" fill="#97c161"/>
      </g>
      <g id="Group_12" data-name="Group 12" transform="translate(859.044 24.022)">
        <path id="Path_66" data-name="Path 66" d="M1040.775,812.6v-3.321h-3.95v-3.323h-3.95v-6.643h-3.95V776.064h-3.952v3.323h-3.95v3.321h-23.7v-3.321h-3.952v-3.323h-3.95v-3.321h-3.95v3.321h-3.952v6.643h-3.95v3.323h-3.95v3.321h-3.952v3.323h-7.9V796H930.156v-3.323h-7.9v-3.323H918.3V786.03h-3.952v-3.323h-7.9v3.323H902.5v3.321H878.8V786.03h-3.952v-3.323H870.9v-6.643h-3.95V762.777h-3.952v9.966h-3.95v19.93h3.95v9.966h3.952v6.643h3.95V812.6h3.95v3.323h7.9v3.321h158.027v-3.321h3.952V812.6Z" transform="translate(-859.044 -719.594)" fill="#7ea251"/>
        <path id="Path_67" data-name="Path 67" d="M1052.627,782.708v-6.643h-3.95v-3.321h-3.95v-3.323h-3.952V766.1h-11.85v-9.966h-3.952v-9.966h-3.95v-3.321h-3.95v-3.321h-3.952V736.2h-3.95v-3.323H977.565V736.2h-3.95V729.56h-3.952v-3.323h-7.9v-3.321h-3.952v-3.323h-23.7v3.323h-7.9v3.321h-3.95v3.323H918.3v3.321h-3.952V736.2H910.4v9.964H882.748v3.323h-7.9v3.323H870.9v3.321h-3.95v19.93h3.95v6.643h3.95v3.323H878.8v3.321h23.7V786.03h3.95v-3.323h7.9v3.323H918.3v3.321h3.95v3.323h7.9V796h31.606v-3.323h7.9v-3.323h3.952V786.03h3.95v-3.323h3.95v-6.643h3.952v-3.321h3.95v3.321h3.95v3.323h3.952v3.321h23.7v-3.321h3.95v-3.323h3.952v23.253h3.95v6.643h3.95v3.323h3.95V812.6h3.952v3.323h3.95v-6.643h3.95v-3.323h3.952V782.708Z" transform="translate(-859.044 -719.594)" fill="#97c161"/>
      </g>
      <g id="Group_13" data-name="Group 13" transform="translate(1012.556 24.022)">
        <path id="Path_68" data-name="Path 68" d="M1194.287,812.6v-3.321h-3.95v-3.323h-3.95v-6.643h-3.952V776.064h-3.95v3.323h-3.95v3.321h-23.7v-3.321h-3.952v-3.323h-3.95v-3.321h-3.952v3.321h-3.95v6.643h-3.95v3.323h-3.95v3.321h-3.952v3.323h-7.9V796h-31.6v-3.323h-7.9v-3.323h-3.95V786.03h-3.952v-3.323h-7.9v3.323h-3.952v3.321h-23.7V786.03h-3.95v-3.323h-3.95v-6.643h-3.952V762.777h-3.95v9.966h-3.95v19.93h3.95v9.966h3.95v6.643h3.952V812.6h3.95v3.323h7.9v3.321h158.027v-3.321h3.952V812.6Z" transform="translate(-1012.556 -719.594)" fill="#7ea251"/>
        <path id="Path_69" data-name="Path 69" d="M1206.139,782.708v-6.643h-3.95v-3.321h-3.95v-3.323h-3.952V766.1h-11.852v-9.966h-3.95v-9.966h-3.95v-3.321h-3.952v-3.321h-3.95V736.2h-3.95v-3.323h-31.606V736.2h-3.95V729.56h-3.952v-3.323h-7.9v-3.321h-3.95v-3.323h-23.7v3.323h-7.9v3.321h-3.95v3.323h-3.95v3.321h-3.952V736.2h-3.95v9.964H1036.26v3.323h-7.9v3.323h-3.95v3.321h-3.952v19.93h3.952v6.643h3.95v3.323h3.95v3.321h23.7V786.03h3.952v-3.323h7.9v3.323h3.952v3.321h3.95v3.323h7.9V796h31.6v-3.323h7.9v-3.323h3.952V786.03h3.95v-3.323h3.95v-6.643h3.95v-3.321h3.952v3.321h3.95v3.323h3.952v3.321h23.7v-3.321h3.95v-3.323h3.95v23.253h3.952v6.643h3.95v3.323h3.95V812.6h3.952v3.323h3.95v-6.643h3.95v-3.323h3.952V782.708Z" transform="translate(-1012.556 -719.594)" fill="#97c161"/>
      </g>
      <g id="Group_14" data-name="Group 14" transform="translate(1166.067 24.022)">
        <path id="Path_70" data-name="Path 70" d="M1347.8,812.6v-3.321h-3.95v-3.323H1339.9v-6.643h-3.95V776.064H1332v3.323h-3.952v3.321h-23.7v-3.321h-3.95v-3.323h-3.95v-3.321h-3.952v3.321h-3.95v6.643h-3.95v3.323h-3.952v3.321h-3.95v3.323h-7.9V796h-31.6v-3.323h-7.9v-3.323h-3.95V786.03h-3.952v-3.323h-7.9v3.323h-3.952v3.321h-23.7V786.03h-3.95v-3.323h-3.95v-6.643h-3.952V762.777h-3.95v9.966h-3.952v19.93h3.952v9.966h3.95v6.643h3.952V812.6h3.95v3.323h7.9v3.321H1347.8v-3.321h3.952V812.6Z" transform="translate(-1166.067 -719.594)" fill="#7ea251"/>
        <path id="Path_71" data-name="Path 71" d="M1359.651,782.708v-6.643h-3.95v-3.321h-3.95v-3.323H1347.8V766.1h-11.852v-9.966H1332v-9.966h-3.952v-3.321h-3.95v-3.321h-3.95V736.2h-3.952v-3.323h-31.6V736.2h-3.952V729.56h-3.95v-3.323h-7.9v-3.321h-3.95v-3.323h-23.7v3.323h-7.9v3.321h-3.95v3.323h-3.95v3.321h-3.952V736.2h-3.95v9.964h-27.656v3.323h-7.9v3.323h-3.95v3.321h-3.952v19.93h3.952v6.643h3.95v3.323h3.95v3.321h23.7V786.03h3.952v-3.323h7.9v3.323h3.952v3.321h3.95v3.323h7.9V796h31.6v-3.323h7.9v-3.323h3.95V786.03h3.952v-3.323h3.95v-6.643h3.95v-3.321h3.952v3.321h3.95v3.323h3.95v3.321h23.7v-3.321H1332v-3.323h3.95v23.253h3.95v6.643h3.952v3.323h3.95V812.6h3.952v3.323h3.95v-6.643h3.95v-3.323h3.95V782.708Z" transform="translate(-1166.067 -719.594)" fill="#97c161"/>
      </g>
      <g id="Group_15" data-name="Group 15" transform="translate(1319.579 24.022)">
        <path id="Path_72" data-name="Path 72" d="M1501.311,812.6v-3.321h-3.95v-3.323h-3.952v-6.643h-3.95V776.064h-3.951v3.323h-3.952v3.321h-23.7v-3.321h-3.95v-3.323h-3.95v-3.321H1446v3.321h-3.95v6.643h-3.95v3.323h-3.952v3.321h-3.95v3.323h-7.9V796h-31.606v-3.323h-7.9v-3.323h-3.95V786.03h-3.952v-3.323h-7.9v3.323h-3.95v3.321h-23.7V786.03h-3.95v-3.323h-3.952v-6.643h-3.95V762.777h-3.95v9.966h-3.952v19.93h3.952v9.966h3.95v6.643h3.95V812.6h3.952v3.323h7.9v3.321h158.028v-3.321h3.95V812.6Z" transform="translate(-1319.579 -719.594)" fill="#7ea251"/>
        <path id="Path_73" data-name="Path 73" d="M1513.164,782.708v-6.643h-3.95v-3.321h-3.952v-3.323h-3.95V766.1H1489.46v-9.966h-3.951v-9.966h-3.952v-3.321h-3.95v-3.321h-3.95V736.2h-3.952v-3.323h-31.6V736.2h-3.952V729.56h-3.95v-3.323h-7.9v-3.321h-3.95v-3.323h-23.7v3.323h-7.9v3.321h-3.95v3.323h-3.95v3.321h-3.952V736.2h-3.95v9.964h-27.656v3.323h-7.9v3.323h-3.952v3.321h-3.95v19.93h3.95v6.643h3.952v3.323h3.95v3.321h23.7V786.03h3.95v-3.323h7.9v3.323h3.952v3.321h3.95v3.323h7.9V796H1422.3v-3.323h7.9v-3.323h3.95V786.03h3.952v-3.323h3.95v-6.643H1446v-3.321h3.952v3.321h3.95v3.323h3.95v3.321h23.7v-3.321h3.952v-3.323h3.951v23.253h3.95v6.643h3.952v3.323h3.95V812.6h3.95v3.323h3.952v-6.643h3.95v-3.323h3.95V782.708Z" transform="translate(-1319.579 -719.594)" fill="#97c161"/>
      </g>
      <g id="Group_16" data-name="Group 16" transform="translate(1473.091 24.022)">
        <path id="Path_74" data-name="Path 74" d="M1654.823,812.6v-3.321h-3.95v-3.323h-3.952v-6.643h-3.95V776.064h-3.952v3.323h-3.95v3.321h-23.7v-3.321h-3.95v-3.323h-3.95v-3.321h-3.952v3.321h-3.95v6.643h-3.952v3.323h-3.95v3.321h-3.95v3.323h-7.9V796H1544.2v-3.323h-7.9v-3.323h-3.95V786.03H1528.4v-3.323h-7.9v3.323h-3.95v3.321h-23.7V786.03h-3.95v-3.323h-3.952v-6.643h-3.95V762.777h-3.95v9.966h-3.952v19.93h3.952v9.966h3.95v6.643h3.95V812.6h3.952v3.323h7.9v3.321h158.028v-3.321h3.95V812.6Z" transform="translate(-1473.091 -719.594)" fill="#7ea251"/>
        <path id="Path_75" data-name="Path 75" d="M1666.676,782.708v-6.643h-3.95v-3.321h-3.952v-3.323h-3.95V766.1h-11.852v-9.966h-3.952v-9.966h-3.95v-3.321h-3.951v-3.321h-3.95V736.2h-3.952v-3.323h-31.606V736.2h-3.95V729.56h-3.95v-3.323h-7.9v-3.321h-3.95v-3.323h-23.7v3.323h-7.9v3.321h-3.95v3.323h-3.95v3.321H1528.4V736.2h-3.95v9.964H1496.8v3.323h-7.9v3.323h-3.952v3.321h-3.95v19.93h3.95v6.643h3.952v3.323h3.95v3.321h23.7V786.03h3.95v-3.323h7.9v3.323h3.952v3.321h3.95v3.323h7.9V796h31.606v-3.323h7.9v-3.323h3.95V786.03h3.95v-3.323h3.952v-6.643h3.95v-3.321h3.952v3.321h3.95v3.323h3.95v3.321h23.7v-3.321h3.95v-3.323h3.952v23.253h3.95v6.643h3.952v3.323h3.95V812.6h3.95v3.323h3.952v-6.643h3.95v-3.323h3.95V782.708Z" transform="translate(-1473.091 -719.594)" fill="#97c161"/>
      </g>
      <g id="Group_17" data-name="Group 17" transform="translate(1626.604 24.022)">
        <path id="Path_76" data-name="Path 76" d="M1808.336,812.6v-3.321h-3.952v-3.323h-3.95v-6.643h-3.95V776.064h-3.952v3.323h-3.95v3.321h-23.7v-3.321h-3.95v-3.323h-3.952v-3.321h-3.95v3.321h-3.95v6.643h-3.952v3.323h-3.95v3.321h-3.95v3.323h-7.9V796h-31.606v-3.323h-7.9v-3.323h-3.952V786.03h-3.95v-3.323h-7.9v3.323h-3.95v3.321h-23.7V786.03h-3.95v-3.323h-3.952v-6.643h-3.95V762.777h-3.95v9.966H1626.6v19.93h3.952v9.966h3.95v6.643h3.95V812.6h3.952v3.323h7.9v3.321h158.028v-3.321h3.95V812.6Z" transform="translate(-1626.604 -719.594)" fill="#7ea251"/>
        <path id="Path_77" data-name="Path 77" d="M1820.188,782.708v-6.643h-3.95v-3.321h-3.952v-3.323h-3.95V766.1h-11.852v-9.966h-3.952v-9.966h-3.95v-3.321h-3.95v-3.321h-3.952V736.2h-3.95v-3.323h-31.606V736.2h-3.95V729.56h-3.95v-3.323h-7.9v-3.321h-3.95v-3.323h-23.7v3.323h-7.9v3.321h-3.95v3.323h-3.952v3.321h-3.95V736.2h-3.95v9.964h-27.656v3.323h-7.9v3.323h-3.952v3.321h-3.95v19.93h3.95v6.643h3.952v3.323h3.95v3.321h23.7V786.03h3.95v-3.323h7.9v3.323h3.95v3.321h3.952v3.323h7.9V796h31.606v-3.323h7.9v-3.323h3.95V786.03h3.95v-3.323h3.952v-6.643h3.95v-3.321h3.95v3.321h3.952v3.323h3.95v3.321h23.7v-3.321h3.95v-3.323h3.952v23.253h3.95v6.643h3.95v3.323h3.952V812.6h3.95v3.323h3.952v-6.643h3.95v-3.323h3.95V782.708Z" transform="translate(-1626.604 -719.594)" fill="#97c161"/>
      </g>
      <g id="Group_18" data-name="Group 18" transform="translate(1780.116 24.022)">
        <path id="Path_78" data-name="Path 78" d="M1920,819.248v-36.54h-1.61v-3.321h-3.95v-3.323h-3.952v-3.321h-3.95v3.321h-3.952v6.643h-3.95v3.323h-3.95v3.321h-3.95v3.323h-7.9v3.321h-31.606v-3.321h-7.9v-3.323h-3.95V786.03h-3.95v-3.323h-7.9v3.323h-3.95v3.321h-23.7V786.03h-3.952v-3.323h-3.95v-6.643h-3.95V762.777h-3.95v9.966h-3.952v19.93h3.952v9.966h3.95v6.643h3.95V812.6h3.95v3.323h7.9v3.321Z" transform="translate(-1780.116 -719.594)" fill="#7ea251"/>
        <path id="Path_79" data-name="Path 79" d="M1920,782.708V732.881h-21.364V736.2h-3.95V729.56h-3.95v-3.323h-7.9v-3.321h-3.952v-3.323h-23.7v3.323h-7.9v3.321h-3.952v3.323h-3.95v3.321h-3.95V736.2h-3.952v9.964H1803.82v3.323h-7.9v3.321h-3.95v3.323h-3.95v19.93h3.95v6.643h3.95v3.323h3.952v3.321h23.7V786.03h3.95v-3.323h7.9v3.323h3.95v3.321h3.95v3.323h7.9v3.321h31.606v-3.321h7.9v-3.323h3.95V786.03h3.95v-3.323h3.95v-6.643h3.952v-3.321h3.95v3.321h3.952v3.323h3.95v3.321Z" transform="translate(-1780.116 -719.594)" fill="#97c161"/>
      </g>
      <g id="Group_19" data-name="Group 19" transform="translate(1707.685 24.022)">
        <path id="Path_80" data-name="Path 80" d="M1893.367,782.708v-6.643h-3.95v-3.321h-3.952v-3.323h-3.95V766.1h-11.852v-9.966h-3.95v-9.966h-3.952v-3.321h-3.95v-3.321h-3.95V736.2h-3.952v-3.323h-31.6V736.2h-3.952V729.56h-3.95v-3.323h-7.9v-3.321h-3.95v-3.323h-23.7v3.323h-7.9v3.321h-3.95v3.323h-3.95v3.321h-3.952V736.2h-3.95v9.964h-27.656v3.323h-7.9v3.323h-3.952v3.321h-3.95v19.93h3.95v6.643h3.952v3.323h3.95v3.321h23.7V786.03h3.952v-3.323h7.9v3.323h3.952v3.321h3.95v3.323h7.9V796h31.6v-3.323h7.9v-3.323h3.95V786.03h3.952v-3.323h3.95v-6.643h3.95v-3.321h3.952v3.321h3.95v3.323h3.95v3.321h23.7v-3.321h3.952v-3.323h3.95v23.253h3.95v6.643h3.952v3.323h3.95V812.6h3.95v3.323h3.952v-6.643h3.95v-3.323h3.95V782.708Z" transform="translate(-1707.685 -719.594)" fill="#97c161"/>
      </g>
      <g id="Group_20" data-name="Group 20" transform="translate(1394.761 14.805)">
        <path id="Path_81" data-name="Path 81" d="M1580.443,773.49v-6.643h-3.95v-3.323h-3.95V760.2h-3.952v-3.323h-11.852v-9.964h-3.95V736.95h-3.952v-3.321h-3.95v-3.323h-3.95v-3.321h-3.952v-3.323h-31.6v3.323h-3.952v-6.643h-3.95V717.02h-7.9V713.7h-3.95v-3.321h-23.7V713.7h-7.9v3.323h-3.95v3.323h-3.95v3.321h-3.952v3.323h-3.95v9.964h-27.654v3.323h-7.9v3.321h-3.952v3.322h-3.95v19.93h3.95v6.643h3.952v3.323h3.95v3.321h23.7v-3.321h3.952V773.49h7.9v3.323h3.952v3.321h3.95v3.323h7.9v3.321h31.6v-3.321h7.9v-3.323h3.95v-3.321h3.952V773.49h3.95v-6.643h3.95v-3.323h3.952v3.323h3.95v3.323h3.95v3.321h23.7v-3.321h3.952v-3.323h3.95V790.1h3.95v6.643h3.952v3.321h3.95v3.323h3.952v3.321h3.95v-6.643h3.95v-3.321h3.95V773.49Z" transform="translate(-1394.761 -710.377)" fill="#97c161"/>
      </g>
      <g id="Group_21" data-name="Group 21" transform="translate(785.746 12.131)">
        <path id="Path_82" data-name="Path 82" d="M971.428,770.817v-6.644h-3.95v-3.321h-3.95v-3.323h-3.952v-3.321H947.724v-9.966h-3.95v-9.964h-3.952v-3.323h-3.95v-3.323h-3.95v-3.321H927.97V720.99h-31.6v3.323h-3.952v-6.643h-3.95v-3.323h-7.9v-3.321h-3.951V707.7h-23.7v3.323h-7.9v3.321h-3.95v3.323h-3.95v3.321h-3.952v3.323H829.2v9.966H801.549V737.6h-7.9v3.321H789.7v3.323h-3.95v19.93h3.95v6.644h3.952v3.322h3.95v3.323h23.7v-3.323h3.952v-3.322h7.9v3.322h3.952v3.323h3.95v3.321h7.9V784.1h31.6v-3.321h7.9v-3.321h3.95v-3.323h3.952v-3.322h3.95v-6.644h3.95v-3.321h3.952v3.321h3.95V767.5h3.95v3.321h23.7V767.5h3.952v-3.323h3.95v23.253h3.95v6.643h3.952v3.322h3.95v3.321h3.952v3.323h3.95v-6.644h3.95V794.07h3.95V770.817Z" transform="translate(-785.746 -707.703)" fill="#97c161"/>
      </g>
      <g id="Group_22" data-name="Group 22" transform="translate(469.715)">
        <path id="Path_83" data-name="Path 83" d="M655.4,758.685v-6.643h-3.952v-3.321H647.5V745.4h-3.952v-3.322H631.695v-9.964h-3.952v-9.964h-3.95v-3.323h-3.952V715.5h-3.95v-3.321h-3.95v-3.323H580.335v3.323h-3.95v-6.643h-3.952v-3.323h-7.9v-3.321h-3.952v-3.322h-23.7v3.322h-7.9v3.321h-3.952v3.323h-3.95v3.321h-3.95v3.323h-3.952v9.966H485.518v3.321h-7.9v3.321h-3.95v3.323h-3.952v19.93h3.952v6.643h3.95v3.323h3.952v3.321h23.7v-3.321h3.95v-3.323h7.9v3.323h3.95v3.321h3.95v3.323h7.9v3.321h31.606v-3.321h7.9v-3.323h3.952v-3.321h3.95v-3.323h3.95v-6.643h3.952v-3.321h3.95v3.321h3.95v3.322h3.952v3.321h23.7v-3.321h3.95v-3.322h3.952v23.253h3.95v6.643h3.95v3.323h3.95v3.321H647.5V791.9h3.95v-6.643H655.4v-3.323h3.95V758.685Z" transform="translate(-469.715 -695.572)" fill="#97c161"/>
      </g>
      <g id="Group_23" data-name="Group 23" transform="translate(34.326 6.065)">
        <path id="Path_84" data-name="Path 84" d="M220.009,764.751v-6.643h-3.95v-3.321h-3.952v-3.322h-3.95v-3.321H196.3v-9.966h-3.952v-9.965H188.4V724.89h-3.95v-3.322H180.5v-3.321h-3.95v-3.323H144.945v3.323h-3.95V711.6h-3.95v-3.323h-7.9V704.96h-3.95v-3.323h-23.7v3.323h-7.9v3.321h-3.95V711.6H85.685v3.321h-3.95v3.323H77.783v9.966H50.129v3.321h-7.9v3.321h-3.95v3.323h-3.95v19.93h3.95v6.643h3.95v3.323h3.952V771.4h23.7v-3.323h3.95v-3.323h7.9v3.323h3.95V771.4h3.952v3.321h7.9v3.321h31.606v-3.321h7.9V771.4h3.95v-3.323h3.95v-3.323H148.9v-6.643h3.95v-3.321h3.95v3.321h3.952v3.323h3.95v3.321h23.7V761.43h3.95v-3.323H196.3v23.253h3.95V788h3.95v3.323h3.952v3.321h3.95v3.323h3.952v-6.643h3.95V788h3.95V764.751Z" transform="translate(-34.326 -701.637)" fill="#97c161"/>
      </g>
    </g>
  </g>
</svg>
