<svg xmlns="http://www.w3.org/2000/svg" width="476.768" height="61.255" viewBox="0 0 476.768 61.255">
  <g id="Group_73" data-name="Group 73" transform="translate(-4007.294 -609.726)">
    <rect id="Rectangle_1270" data-name="Rectangle 1270" width="11.922" height="8.744" transform="translate(4162.244 653.483)" fill="#303a34"/>
    <path id="Path_411" data-name="Path 411" d="M4460.22,627.233H4174.166v34.995h297.98V627.233Z" fill="#b3ca61"/>
    <path id="Path_412" data-name="Path 412" d="M4043.042,662.227h107.275v-8.744h11.926V627.233H4019.21v34.995h23.833Z" fill="#acb1b9"/>
    <rect id="Rectangle_1271" data-name="Rectangle 1271" width="11.926" height="8.753" transform="translate(4460.22 618.479)" fill="#89a55a"/>
    <path id="Path_413" data-name="Path 413" d="M4448.3,618.479H4174.166v8.753H4460.22v-8.753Z" fill="#fff"/>
    <rect id="Rectangle_1272" data-name="Rectangle 1272" width="11.922" height="8.753" transform="translate(4162.244 618.479)" fill="#9faa83"/>
    <path id="Path_414" data-name="Path 414" d="M4138.4,618.479H4019.21v8.753h131.108v-8.753Z" fill="#787f83"/>
    <path id="Path_415" data-name="Path 415" d="M4448.3,662.227H4162.244v-8.744h-11.926v8.744H4019.21v8.753h452.936v-8.753H4448.3Z" fill="#231f20"/>
    <path id="Path_416" data-name="Path 416" d="M4019.21,644.73V618.479h-11.916v43.748h11.916v-17.5Z" fill="#231f20"/>
    <path id="Path_417" data-name="Path 417" d="M4162.244,644.73v8.754h11.921V627.233h-11.921v17.5Z" fill="#231f20"/>
    <path id="Path_418" data-name="Path 418" d="M4472.146,618.479v43.748h11.916V618.479Z" fill="#231f20"/>
    <path id="Path_419" data-name="Path 419" d="M4043.042,618.479h107.275v8.753h11.926v-8.753h309.9v-8.754H4019.21v8.754h23.833Z" fill="#231f20"/>
  </g>
</svg>
