<svg xmlns="http://www.w3.org/2000/svg" width="832.713" height="483.435" viewBox="0 0 832.713 483.435">
  <g id="Group_43" data-name="Group 43" transform="translate(-1087.287 -596.565)">
    <rect id="Rectangle_423" data-name="Rectangle 423" width="12.943" height="6.043" transform="translate(1773.294 1073.957)" fill="#1f565e"/>
    <rect id="Rectangle_424" data-name="Rectangle 424" width="12.945" height="6.043" transform="translate(1695.632 1073.957)" fill="#1c525b"/>
    <rect id="Rectangle_425" data-name="Rectangle 425" width="12.943" height="6.043" transform="translate(1126.117 1073.957)" fill="#1d545c"/>
    <rect id="Rectangle_426" data-name="Rectangle 426" width="12.943" height="6.043" transform="translate(1669.746 1067.914)" fill="#1a4a51"/>
    <rect id="Rectangle_427" data-name="Rectangle 427" width="12.943" height="6.043" transform="translate(1152.005 1055.828)" fill="#1f535b"/>
    <rect id="Rectangle_428" data-name="Rectangle 428" width="12.944" height="6.043" transform="translate(1113.173 1049.785)" fill="#284f54"/>
    <rect id="Rectangle_429" data-name="Rectangle 429" width="12.945" height="6.043" transform="translate(1786.237 1043.742)" fill="#1d525a"/>
    <rect id="Rectangle_430" data-name="Rectangle 430" width="12.943" height="6.043" transform="translate(1126.117 1037.699)" fill="#426167"/>
    <rect id="Rectangle_431" data-name="Rectangle 431" width="12.945" height="6.043" transform="translate(1139.06 1025.613)" fill="#617c83"/>
    <rect id="Rectangle_432" data-name="Rectangle 432" width="12.943" height="6.043" transform="translate(1203.779 1013.528)" fill="#1a4d54"/>
    <rect id="Rectangle_433" data-name="Rectangle 433" width="12.943" height="6.043" transform="translate(1216.722 1007.484)" fill="#1c525b"/>
    <rect id="Rectangle_434" data-name="Rectangle 434" width="12.945" height="6.043" transform="translate(1825.068 1001.442)" fill="#1b4f56"/>
    <rect id="Rectangle_435" data-name="Rectangle 435" width="12.945" height="6.043" transform="translate(1721.519 1001.442)" fill="#1c4e54"/>
    <rect id="Rectangle_436" data-name="Rectangle 436" width="12.943" height="6.043" transform="translate(1449.706 1001.442)" fill="#1a4a51"/>
    <rect id="Rectangle_437" data-name="Rectangle 437" width="12.943" height="6.043" transform="translate(1177.892 989.356)" fill="#516e74"/>
    <rect id="Rectangle_438" data-name="Rectangle 438" width="12.943" height="6.043" transform="translate(1255.552 977.27)" fill="#1b5159"/>
    <rect id="Rectangle_439" data-name="Rectangle 439" width="12.943" height="6.043" transform="translate(1773.294 971.227)" fill="#1b4950"/>
    <rect id="Rectangle_440" data-name="Rectangle 440" width="12.943" height="6.043" transform="translate(1203.779 971.227)" fill="#33565c"/>
    <rect id="Rectangle_441" data-name="Rectangle 441" width="12.943" height="6.043" transform="translate(1773.294 965.184)" fill="#1d5159"/>
    <rect id="Rectangle_442" data-name="Rectangle 442" width="12.943" height="6.043" transform="translate(1475.593 965.184)" fill="#1f545d"/>
    <rect id="Rectangle_443" data-name="Rectangle 443" width="12.943" height="6.043" transform="translate(1216.722 965.184)" fill="#294e53"/>
    <rect id="Rectangle_444" data-name="Rectangle 444" width="12.945" height="6.043" transform="translate(1721.519 941.012)" fill="#1f565e"/>
    <rect id="Rectangle_445" data-name="Rectangle 445" width="12.943" height="6.043" transform="translate(1475.593 941.012)" fill="#1a4d55"/>
    <rect id="Rectangle_446" data-name="Rectangle 446" width="12.943" height="6.043" transform="translate(1876.842 934.969)" fill="#1a484f"/>
    <rect id="Rectangle_447" data-name="Rectangle 447" width="12.943" height="6.043" transform="translate(1669.746 934.969)" fill="#1c4c52"/>
    <rect id="Rectangle_448" data-name="Rectangle 448" width="12.944" height="6.043" transform="translate(1333.213 916.84)" fill="#1b5159"/>
    <rect id="Rectangle_449" data-name="Rectangle 449" width="12.945" height="6.043" transform="translate(1488.536 904.754)" fill="#1e555e"/>
    <rect id="Rectangle_450" data-name="Rectangle 450" width="12.943" height="6.043" transform="translate(1863.899 898.711)" fill="#1b4e55"/>
    <rect id="Rectangle_451" data-name="Rectangle 451" width="12.943" height="6.043" transform="translate(1643.859 898.711)" fill="#1a484f"/>
    <rect id="Rectangle_452" data-name="Rectangle 452" width="12.945" height="6.043" transform="translate(1307.326 898.711)" fill="#617c83"/>
    <rect id="Rectangle_453" data-name="Rectangle 453" width="12.943" height="6.043" transform="translate(1320.27 892.669)" fill="#4b6971"/>
    <rect id="Rectangle_454" data-name="Rectangle 454" width="12.945" height="6.043" transform="translate(1372.044 880.582)" fill="#1c4c52"/>
    <rect id="Rectangle_455" data-name="Rectangle 455" width="12.944" height="6.043" transform="translate(1850.955 874.54)" fill="#1b4e55"/>
    <rect id="Rectangle_456" data-name="Rectangle 456" width="12.943" height="6.043" transform="translate(1838.012 874.54)" fill="#1a4d55"/>
    <rect id="Rectangle_457" data-name="Rectangle 457" width="12.944" height="6.043" transform="translate(1333.213 874.54)" fill="#365a60"/>
    <rect id="Rectangle_458" data-name="Rectangle 458" width="12.943" height="6.043" transform="translate(1605.029 868.497)" fill="#1b4950"/>
    <rect id="Rectangle_459" data-name="Rectangle 459" width="12.944" height="6.043" transform="translate(1333.213 868.497)" fill="#c1ccd4"/>
    <rect id="Rectangle_460" data-name="Rectangle 460" width="12.945" height="6.043" transform="translate(1592.084 862.454)" fill="#1d525a"/>
    <rect id="Rectangle_461" data-name="Rectangle 461" width="12.943" height="6.043" transform="translate(1384.988 856.411)" fill="#1d5159"/>
    <rect id="Rectangle_462" data-name="Rectangle 462" width="12.943" height="6.043" transform="translate(1579.141 850.368)" fill="#1c4c52"/>
    <rect id="Rectangle_463" data-name="Rectangle 463" width="12.945" height="6.043" transform="translate(1397.931 832.239)" fill="#1f545d"/>
    <rect id="Rectangle_464" data-name="Rectangle 464" width="12.943" height="6.043" transform="translate(1359.1 832.239)" fill="#e2e7eb"/>
    <rect id="Rectangle_465" data-name="Rectangle 465" width="12.944" height="6.044" transform="translate(1566.197 820.153)" fill="#40575b"/>
    <rect id="Rectangle_466" data-name="Rectangle 466" width="12.945" height="6.044" transform="translate(1372.044 820.153)" fill="#2b5156"/>
    <rect id="Rectangle_467" data-name="Rectangle 467" width="12.945" height="6.041" transform="translate(1372.044 814.112)" fill="#aebcc4"/>
    <rect id="Rectangle_468" data-name="Rectangle 468" width="12.943" height="6.043" transform="translate(1579.141 808.069)" fill="#284a4c"/>
    <rect id="Rectangle_469" data-name="Rectangle 469" width="12.945" height="6.041" transform="translate(1592.084 795.983)" fill="#2e4d51"/>
    <rect id="Rectangle_470" data-name="Rectangle 470" width="12.943" height="6.041" transform="translate(1384.988 795.983)" fill="#748a93"/>
    <rect id="Rectangle_471" data-name="Rectangle 471" width="12.943" height="6.043" transform="translate(1605.029 789.94)" fill="#294b4e"/>
    <rect id="Rectangle_472" data-name="Rectangle 472" width="12.945" height="6.043" transform="translate(1397.931 777.854)" fill="#436269"/>
    <rect id="Rectangle_473" data-name="Rectangle 473" width="12.943" height="6.043" transform="translate(1773.294 771.811)" fill="#1a4a51"/>
    <rect id="Rectangle_474" data-name="Rectangle 474" width="12.945" height="6.043" transform="translate(1630.914 765.768)" fill="#40595c"/>
    <rect id="Rectangle_475" data-name="Rectangle 475" width="12.945" height="6.043" transform="translate(1825.068 759.725)" fill="#538899"/>
    <rect id="Rectangle_476" data-name="Rectangle 476" width="12.943" height="6.043" transform="translate(1812.124 759.725)" fill="#4d868f"/>
    <g id="Group_38" data-name="Group 38">
      <rect id="Rectangle_477" data-name="Rectangle 477" width="4.327" height="24.172" transform="translate(1915.673 904.754)" fill="#27636f"/>
      <path id="Path_138" data-name="Path 138" d="M1920,1025.613v-42.3h-4.327V977.27h-12.943v-6.043h-12.943V959.141h-12.945V953.1H1863.9V941.012h-12.944V928.926h-12.943v18.129h12.943v18.129H1863.9V977.27h12.943v12.086h12.945v12.086h12.943v12.086h12.943v12.086Z" fill="#27636f"/>
      <rect id="Rectangle_478" data-name="Rectangle 478" width="12.943" height="6.043" transform="translate(1708.577 1043.742)" fill="#27636f"/>
      <rect id="Rectangle_479" data-name="Rectangle 479" width="12.943" height="6.043" transform="translate(1799.182 1025.613)" fill="#27636f"/>
      <rect id="Rectangle_480" data-name="Rectangle 480" width="12.945" height="6.043" transform="translate(1721.519 1007.484)" fill="#27636f"/>
      <rect id="Rectangle_481" data-name="Rectangle 481" width="12.945" height="6.043" transform="translate(1462.649 983.313)" fill="#27636f"/>
      <rect id="Rectangle_482" data-name="Rectangle 482" width="12.943" height="6.043" transform="translate(1773.294 977.27)" fill="#27636f"/>
      <path id="Path_139" data-name="Path 139" d="M1773.294,959.141v6.043h12.943V953.1h-12.943Z" fill="#27636f"/>
      <rect id="Rectangle_483" data-name="Rectangle 483" width="12.944" height="6.043" transform="translate(1760.35 941.012)" fill="#27636f"/>
      <path id="Path_140" data-name="Path 140" d="M1669.746,934.969V916.84H1656.8V904.754h-12.943V892.669h-12.944V880.582h-12.943V874.54h-12.943V868.5h-12.945V856.411h-12.943V838.282h-25.887v60.429H1566.2v30.215h-12.943v30.215h-12.943v24.172h-12.944v18.129h-12.943v12.086H1501.48v18.129h-12.945v18.129h-12.943v18.129h-12.945V1080h207.1v-12.086h12.943v-126.9h-12.943Z" fill="#27636f"/>
      <rect id="Rectangle_484" data-name="Rectangle 484" width="12.943" height="6.043" transform="translate(1863.899 916.84)" fill="#27636f"/>
      <rect id="Rectangle_485" data-name="Rectangle 485" width="12.943" height="6.043" transform="translate(1708.577 916.84)" fill="#27636f"/>
      <path id="Path_141" data-name="Path 141" d="M1773.294,910.8v-6.043H1760.35v-6.043h-12.943V910.8h25.887Z" fill="#27636f"/>
      <rect id="Rectangle_486" data-name="Rectangle 486" width="12.945" height="6.043" transform="translate(1488.536 898.711)" fill="#27636f"/>
      <path id="Path_142" data-name="Path 142" d="M1462.649,898.711V808.069h12.945V777.854h-12.945v18.129h-12.943v12.086h-12.944v12.085h-12.943V826.2h-12.943v12.085h-12.945v24.172h-12.943v24.172h-12.944v12.086H1359.1V910.8h-12.943v12.086h-12.944v6.043H1320.27v12.086h-12.945v6.043h-12.943v12.086H1281.44v12.086H1268.5v12.086h-12.943v6.043h-12.944v12.086h-12.943v12.086h-12.943v6.043h-12.944v12.086h-12.943v6.043h-12.943v6.043h-12.944v18.129H1152v6.043H1139.06V1080h232.984v-18.129h12.944v-18.129h12.943v-12.086h12.945v-12.086h12.943v-6.043h12.943V995.4h12.944V904.754h12.943Z" fill="#27636f"/>
      <path id="Path_143" data-name="Path 143" d="M1915.673,892.669v-6.043h-12.943v18.129h12.943V892.669Z" fill="#27636f"/>
      <path id="Path_144" data-name="Path 144" d="M1902.729,874.54h-12.944v12.086h12.944V874.54Z" fill="#27636f"/>
      <rect id="Rectangle_487" data-name="Rectangle 487" width="12.943" height="6.043" transform="translate(1876.842 862.454)" fill="#27636f"/>
      <path id="Path_145" data-name="Path 145" d="M1747.407,862.454V850.368h-12.943V868.5h12.943Z" fill="#27636f"/>
      <rect id="Rectangle_488" data-name="Rectangle 488" width="12.945" height="6.043" transform="translate(1825.068 856.411)" fill="#27636f"/>
      <rect id="Rectangle_489" data-name="Rectangle 489" width="12.943" height="6.043" transform="translate(1838.012 850.368)" fill="#27636f"/>
      <rect id="Rectangle_490" data-name="Rectangle 490" width="12.943" height="6.043" transform="translate(1863.899 844.325)" fill="#27636f"/>
      <rect id="Rectangle_491" data-name="Rectangle 491" width="12.943" height="6.043" transform="translate(1812.124 838.282)" fill="#27636f"/>
      <rect id="Rectangle_492" data-name="Rectangle 492" width="12.945" height="6.042" transform="translate(1825.068 826.197)" fill="#27636f"/>
      <rect id="Rectangle_493" data-name="Rectangle 493" width="12.945" height="6.042" transform="translate(1695.632 808.069)" fill="#27636f"/>
      <rect id="Rectangle_494" data-name="Rectangle 494" width="12.945" height="6.044" transform="translate(1786.237 802.024)" fill="#27636f"/>
      <rect id="Rectangle_495" data-name="Rectangle 495" width="12.943" height="6.044" transform="translate(1799.182 783.895)" fill="#27636f"/>
      <path id="Path_146" data-name="Path 146" d="M1488.536,771.811v-6.043h-12.943v12.086h12.943Z" fill="#27636f"/>
      <rect id="Rectangle_496" data-name="Rectangle 496" width="12.945" height="6.043" transform="translate(1786.237 765.768)" fill="#27636f"/>
      <path id="Path_147" data-name="Path 147" d="M1501.48,759.725v-6.043h-12.945v12.086h12.945Z" fill="#27636f"/>
    </g>
    <rect id="Rectangle_497" data-name="Rectangle 497" width="12.943" height="6.043" transform="translate(1423.818 753.682)" fill="#7f939c"/>
    <rect id="Rectangle_498" data-name="Rectangle 498" width="12.943" height="6.043" transform="translate(1669.746 747.639)" fill="#2d5352"/>
    <rect id="Rectangle_499" data-name="Rectangle 499" width="12.943" height="6.043" transform="translate(1643.859 747.639)" fill="#5f6f73"/>
    <rect id="Rectangle_500" data-name="Rectangle 500" width="12.944" height="6.043" transform="translate(1527.366 747.639)" fill="#638996"/>
    <g id="Group_39" data-name="Group 39">
      <path id="Path_148" data-name="Path 148" d="M1920,983.313V928.926h-4.327V904.754H1902.73V886.626h-12.943V874.54h12.943v12.086h12.943v18.128H1920V856.411h-4.327V844.325H1902.73V832.239h-12.943V820.153h-12.945V808.069H1863.9V789.94h-12.944V777.854h-12.943V765.767h-38.83V783.9h12.942v24.174h12.943V826.2h12.945v24.172h12.943V874.54H1863.9v24.171h12.943v24.172H1863.9V898.711h-12.944V880.582h-12.943V862.454h-12.945V868.5h-25.885v-6.043h-12.945v-6.043h-12.943V844.325H1760.35V832.239h-12.943V820.153h-12.943V808.069h-12.945V795.983h-12.942V814.11h-12.943v84.6h12.943V916.84h12.942v24.172h12.945v72.516h-12.945v36.257h-12.942V1080h64.717v-6.043h12.943v-30.215h12.945v-18.129h12.942v-12.085h12.943v-12.086h12.945V928.926h12.943v12.086H1863.9V953.1h12.943v6.043h12.945v12.086h12.943v6.043h12.943v6.043ZM1734.464,850.368h12.943V868.5h-12.943Zm25.886,96.687V910.8h-12.943V880.582h12.943v24.172h12.944v42.3Zm25.887,36.258h-12.943V953.1h12.943Zm103.55-120.859V868.5h-12.945v-6.043ZM1863.9,850.368v-6.043h12.943v6.043Zm25.888,90.644h-12.945V928.926h12.945Z" fill="#377d8f"/>
      <path id="Path_149" data-name="Path 149" d="M1812.124,850.368v6.043h12.943V844.325h-12.943Z" fill="#377d8f"/>
      <rect id="Rectangle_501" data-name="Rectangle 501" width="12.943" height="6.042" transform="translate(1799.182 826.197)" fill="#377d8f"/>
      <path id="Path_150" data-name="Path 150" d="M1553.254,820.153v-24.17h-12.943v-42.3h-12.945v-6.043h-12.943v6.043H1501.48v12.086h-12.944v12.086h-12.943v30.215h-12.944v96.685h-12.943V995.4h-12.945v18.129h-12.943v6.043h-12.943v12.085h-12.944v12.086h-12.943v18.129h-12.944V1080h90.605v-12.086h12.944v-18.129h12.943v-18.129h12.944v-18.128h12.943v-12.086h12.943V983.313h12.945V959.141h12.943V928.926H1566.2V898.711h-12.943V838.282H1566.2V826.2h-12.943Zm-90.6,163.16V971.227h12.944V941.012h12.943v-42.3h12.944v48.344h-12.944v24.172h-12.943v18.129h-12.944Zm-12.943,18.129h12.943v6.043h-12.943Z" fill="#377d8f"/>
      <rect id="Rectangle_502" data-name="Rectangle 502" width="12.945" height="6.042" transform="translate(1786.237 808.069)" fill="#377d8f"/>
      <path id="Path_151" data-name="Path 151" d="M1773.294,789.94v12.085h12.943v-24.17h-12.943V789.94Z" fill="#377d8f"/>
      <path id="Path_152" data-name="Path 152" d="M1786.237,759.725v-6.043h-12.943v-6.043H1760.35v30.215h12.944V765.768h25.888v-6.043Z" fill="#377d8f"/>
    </g>
    <rect id="Rectangle_503" data-name="Rectangle 503" width="12.943" height="6.043" transform="translate(1501.48 747.639)" fill="#768f99"/>
    <rect id="Rectangle_504" data-name="Rectangle 504" width="12.945" height="6.043" transform="translate(1462.649 747.639)" fill="#627277"/>
    <rect id="Rectangle_505" data-name="Rectangle 505" width="12.944" height="6.043" transform="translate(1436.761 747.639)" fill="#436269"/>
    <g id="Group_40" data-name="Group 40">
      <path id="Path_153" data-name="Path 153" d="M1920,1025.613h-4.327v-12.086h-12.943v-12.086h-12.943V989.356h-12.945V977.27H1863.9V965.184h-12.944V947.055h-12.943v60.429h-12.944v6.043h-12.943v18.129h-12.943v18.129h-12.945V1080H1920Z" fill="#183d42"/>
      <path id="Path_154" data-name="Path 154" d="M1462.649,977.27v6.043h12.945V971.227h-12.945Z" fill="#183d42"/>
      <path id="Path_155" data-name="Path 155" d="M1475.593,953.1v12.086h12.943V947.055h-12.943Z" fill="#183d42"/>
      <path id="Path_156" data-name="Path 156" d="M1721.519,941.012V922.883h-12.943V898.711h-12.945V808.069h12.945V777.854h-12.945V765.768h-12.943V753.682h-12.943V741.6H1656.8v12.086h-12.943v18.129h-12.944v6.043h-12.943v18.129h-12.943v6.042h-12.945V814.11h-12.943V826.2H1566.2v12.085h12.944v12.086h12.943v12.086h12.945V868.5h12.943v12.086h12.943v12.086h12.944v6.043H1656.8V916.84h12.944v18.129h12.943v138.988h-12.943V1080h25.886v-6.043h12.945v-30.215h12.943v-42.3h12.945V947.055h-12.945Z" fill="#183d42"/>
      <rect id="Rectangle_506" data-name="Rectangle 506" width="12.943" height="6.043" transform="translate(1876.842 928.926)" fill="#183d42"/>
      <path id="Path_157" data-name="Path 157" d="M1760.35,916.84v24.172h12.944V910.8H1760.35Z" fill="#183d42"/>
      <path id="Path_158" data-name="Path 158" d="M1488.536,916.84v30.215h12.945V910.8h-12.945Z" fill="#183d42"/>
      <path id="Path_159" data-name="Path 159" d="M1863.9,910.8v6.043h12.943V904.754H1863.9Z" fill="#183d42"/>
      <path id="Path_160" data-name="Path 160" d="M1760.35,892.669V880.582h-12.943v18.129h12.943Z" fill="#183d42"/>
      <path id="Path_161" data-name="Path 161" d="M1850.955,886.626v12.086H1863.9V880.582h-12.944Z" fill="#183d42"/>
      <path id="Path_162" data-name="Path 162" d="M1838.012,868.5v6.043h12.943V856.411h-12.943V868.5Z" fill="#183d42"/>
      <path id="Path_163" data-name="Path 163" d="M1462.649,789.94V777.854h12.945V765.768h12.943V753.682h-25.887v-6.043h-12.943v6.043h-12.944v6.043h-12.943v6.043h-12.943V783.9h-12.945v18.129h-12.943V826.2h-12.944v12.085H1359.1v18.129h-12.943v24.172h-12.944v18.129H1320.27v6.043h-12.945V910.8h-12.943v12.086H1281.44v6.043H1268.5v12.086h-12.943v6.043h-12.944v12.086h-12.943v12.086h-12.943v6.043h-12.944v6.043h-12.943V995.4h-12.943v6.043h-12.944v12.086H1152v18.129H1139.06v12.086h-12.943v12.086h-12.944v6.043H1100.23v12.086h-12.943V1080h38.83v-6.043h12.943v-6.043H1152v-12.086h12.943v-12.086h12.944V1037.7h12.943v-6.043h12.943v-18.129h12.944v-6.043h12.943v-6.043h12.943V989.356h12.944V977.27H1268.5v-6.043h12.945V959.141h12.943V947.055h12.943v-6.043h12.945V928.926h12.943V916.84h12.944V910.8H1359.1V898.711h12.943V880.582h12.944V856.411h12.943V832.239h12.945V826.2h12.943v-6.044h12.943V808.069h12.944V795.983h12.943Z" fill="#183d42"/>
      <path id="Path_164" data-name="Path 164" d="M1786.237,783.9v18.129h12.945V826.2h12.943v12.085h12.943v18.129h12.944V832.239h-12.944v-24.17h-12.943V789.94h-12.943V771.811h-12.945V783.9Z" fill="#183d42"/>
      <rect id="Rectangle_507" data-name="Rectangle 507" width="12.943" height="6.043" transform="translate(1773.294 765.768)" fill="#183d42"/>
    </g>
    <rect id="Rectangle_508" data-name="Rectangle 508" width="12.943" height="6.043" transform="translate(1514.423 741.596)" fill="#7d909a"/>
    <rect id="Rectangle_509" data-name="Rectangle 509" width="12.943" height="6.043" transform="translate(1449.706 741.596)" fill="#657579"/>
    <rect id="Rectangle_510" data-name="Rectangle 510" width="12.944" height="6.043" transform="translate(1656.802 735.553)" fill="#506367"/>
    <rect id="Rectangle_511" data-name="Rectangle 511" width="12.945" height="6.043" transform="translate(1462.649 723.467)" fill="#ced1d7"/>
    <rect id="Rectangle_512" data-name="Rectangle 512" width="12.943" height="6.043" transform="translate(1475.593 717.424)" fill="#acb1b9"/>
    <rect id="Rectangle_513" data-name="Rectangle 513" width="12.943" height="6.043" transform="translate(1501.48 693.253)" fill="#d4d7dc"/>
    <rect id="Rectangle_514" data-name="Rectangle 514" width="12.943" height="6.043" transform="translate(1514.423 687.209)" fill="#b1b6bd"/>
    <rect id="Rectangle_515" data-name="Rectangle 515" width="12.943" height="6.043" transform="translate(1540.311 663.038)" fill="#acb1b9"/>
    <rect id="Rectangle_516" data-name="Rectangle 516" width="12.943" height="6.043" transform="translate(1553.254 650.952)" fill="#acb1b9"/>
    <rect id="Rectangle_517" data-name="Rectangle 517" width="12.944" height="6.043" transform="translate(1566.197 638.866)" fill="#acb1b9"/>
    <g id="Group_41" data-name="Group 41">
      <path id="Path_165" data-name="Path 165" d="M1656.8,687.209V650.952h-12.943V632.823h-12.944V602.608h-12.943v6.043h-12.943v12.086h-12.945v12.086h-12.943v12.086H1566.2v12.086h-12.943v12.086h-12.943v6.043h-12.944v18.129h-12.943V699.3H1501.48v6.043h-12.945v18.129h-12.943v6.043h-12.945v6.043h-12.943V741.6h12.943v6.043h12.945v6.043h25.887v-6.043h12.943V741.6h12.943v6.043h12.944v48.344h12.943V826.2H1566.2v-6.044h12.944V808.069h12.943V795.983h12.945V789.94h12.943V777.854h12.943V765.768h12.944V747.639H1656.8V735.553h12.944V687.209Z" fill="#969e9e"/>
    </g>
    <rect id="Rectangle_518" data-name="Rectangle 518" width="12.943" height="6.043" transform="translate(1605.029 602.608)" fill="#acb1b9"/>
    <g id="Group_42" data-name="Group 42">
      <path id="Path_166" data-name="Path 166" d="M1812.124,747.639V735.553h-12.943V729.51h-12.945v-6.043h-12.943V711.381H1760.35v-6.043h-12.943V699.3h-12.943V687.209h-12.945V675.124h-12.943V663.038h-12.945V650.952h-12.943v-6.043h-12.943V632.823H1656.8V620.737h-12.943V608.651h-12.944v24.172h12.944v18.129H1656.8v24.172h0v6.043h0v6.043h12.944v60.43h12.943v18.129h12.943v12.086h12.945v18.129h12.943v12.086h12.945v12.085h12.943v12.086h12.943v12.086h12.944v12.086h12.943v6.043h12.945V868.5h25.886V856.411h-12.943V838.282h0v-6.043h-12.943V814.11h-12.945v6.043h0V802.024h-12.943v-24.17H1760.35V747.639h12.944v6.043h12.943v6.043h12.945v6.043h12.943v-6.043h12.943V747.639Z" fill="#fff"/>
      <rect id="Rectangle_519" data-name="Rectangle 519" width="12.943" height="6.043" transform="translate(1617.972 596.565)" fill="#fff"/>
    </g>
  </g>
</svg>
