<svg xmlns="http://www.w3.org/2000/svg" width="637.89" height="483.435" viewBox="0 0 637.89 483.435">
  <g id="Group_31" data-name="Group 31" transform="translate(0 -596.565)">
    <rect id="Rectangle_229" data-name="Rectangle 229" width="12.78" height="6.043" transform="translate(292.861 1073.957)" fill="#1f565e"/>
    <rect id="Rectangle_230" data-name="Rectangle 230" width="12.779" height="6.043" transform="translate(216.188 1073.957)" fill="#1c525b"/>
    <rect id="Rectangle_231" data-name="Rectangle 231" width="12.778" height="6.043" transform="translate(625.112 1067.914)" fill="#6190a1"/>
    <rect id="Rectangle_232" data-name="Rectangle 232" width="12.78" height="6.043" transform="translate(190.63 1067.914)" fill="#1a4a51"/>
    <rect id="Rectangle_233" data-name="Rectangle 233" width="12.778" height="6.043" transform="translate(625.112 1061.871)" fill="#dee4e8"/>
    <rect id="Rectangle_234" data-name="Rectangle 234" width="12.779" height="6.043" transform="translate(612.333 1049.785)" fill="#598b9d"/>
    <rect id="Rectangle_235" data-name="Rectangle 235" width="12.779" height="6.043" transform="translate(612.333 1043.742)" fill="#d3dce1"/>
    <rect id="Rectangle_236" data-name="Rectangle 236" width="12.778" height="6.043" transform="translate(305.641 1043.742)" fill="#1d525a"/>
    <rect id="Rectangle_237" data-name="Rectangle 237" width="12.78" height="6.043" transform="translate(586.775 1013.528)" fill="#759dad"/>
    <rect id="Rectangle_238" data-name="Rectangle 238" width="12.778" height="6.043" transform="translate(573.996 1001.442)" fill="#6692a3"/>
    <rect id="Rectangle_239" data-name="Rectangle 239" width="12.779" height="6.043" transform="translate(343.978 1001.442)" fill="#1b4f56"/>
    <rect id="Rectangle_240" data-name="Rectangle 240" width="12.779" height="6.043" transform="translate(241.747 1001.442)" fill="#1c4e54"/>
    <rect id="Rectangle_241" data-name="Rectangle 241" width="12.779" height="6.043" transform="translate(561.218 989.356)" fill="#598b9d"/>
    <rect id="Rectangle_242" data-name="Rectangle 242" width="12.779" height="6.043" transform="translate(561.218 983.313)" fill="#e5e9ec"/>
    <rect id="Rectangle_243" data-name="Rectangle 243" width="12.778" height="6.043" transform="translate(548.439 971.227)" fill="#d7dfe5"/>
    <rect id="Rectangle_244" data-name="Rectangle 244" width="12.78" height="6.043" transform="translate(292.861 971.227)" fill="#1b4950"/>
    <rect id="Rectangle_245" data-name="Rectangle 245" width="12.78" height="6.043" transform="translate(292.861 965.184)" fill="#1d5159"/>
    <rect id="Rectangle_246" data-name="Rectangle 246" width="11.727" height="6.043" transform="translate(0 965.184)" fill="#1f545d"/>
    <rect id="Rectangle_247" data-name="Rectangle 247" width="12.78" height="6.043" transform="translate(535.659 959.141)" fill="#c4d2da"/>
    <rect id="Rectangle_248" data-name="Rectangle 248" width="12.778" height="6.043" transform="translate(522.881 947.055)" fill="#b0c4cd"/>
    <rect id="Rectangle_249" data-name="Rectangle 249" width="12.779" height="6.043" transform="translate(241.747 941.012)" fill="#1f565e"/>
    <rect id="Rectangle_250" data-name="Rectangle 250" width="11.727" height="6.043" transform="translate(0 941.012)" fill="#1a4d55"/>
    <rect id="Rectangle_251" data-name="Rectangle 251" width="12.779" height="6.043" transform="translate(510.102 934.969)" fill="#98b4c2"/>
    <rect id="Rectangle_252" data-name="Rectangle 252" width="12.779" height="6.043" transform="translate(395.093 934.969)" fill="#1a484f"/>
    <rect id="Rectangle_253" data-name="Rectangle 253" width="12.78" height="6.043" transform="translate(190.63 934.969)" fill="#1c4c52"/>
    <rect id="Rectangle_254" data-name="Rectangle 254" width="12.779" height="6.043" transform="translate(497.324 922.883)" fill="#84a7b5"/>
    <rect id="Rectangle_255" data-name="Rectangle 255" width="12.779" height="6.043" transform="translate(11.727 904.754)" fill="#1e555e"/>
    <rect id="Rectangle_256" data-name="Rectangle 256" width="12.78" height="6.043" transform="translate(382.313 898.711)" fill="#1b4e55"/>
    <rect id="Rectangle_257" data-name="Rectangle 257" width="12.779" height="6.043" transform="translate(165.073 898.711)" fill="#1a484f"/>
    <rect id="Rectangle_258" data-name="Rectangle 258" width="12.779" height="6.043" transform="translate(458.987 880.582)" fill="#55899b"/>
    <rect id="Rectangle_259" data-name="Rectangle 259" width="12.779" height="6.043" transform="translate(369.534 874.54)" fill="#1b4e55"/>
    <rect id="Rectangle_260" data-name="Rectangle 260" width="12.778" height="6.043" transform="translate(356.756 874.54)" fill="#1a4d55"/>
    <rect id="Rectangle_261" data-name="Rectangle 261" width="12.778" height="6.043" transform="translate(126.736 868.497)" fill="#1b4950"/>
    <rect id="Rectangle_262" data-name="Rectangle 262" width="12.779" height="6.043" transform="translate(113.958 862.454)" fill="#1d525a"/>
    <rect id="Rectangle_263" data-name="Rectangle 263" width="12.778" height="6.043" transform="translate(101.179 850.368)" fill="#1c4c52"/>
    <rect id="Rectangle_264" data-name="Rectangle 264" width="12.779" height="6.043" transform="translate(420.65 838.282)" fill="#abbfca"/>
    <rect id="Rectangle_265" data-name="Rectangle 265" width="12.778" height="6.042" transform="translate(407.872 826.197)" fill="#93b0bd"/>
    <rect id="Rectangle_266" data-name="Rectangle 266" width="12.78" height="6.044" transform="translate(88.399 820.153)" fill="#40575b"/>
    <rect id="Rectangle_267" data-name="Rectangle 267" width="12.779" height="6.041" transform="translate(395.093 814.112)" fill="#80a4b3"/>
    <rect id="Rectangle_268" data-name="Rectangle 268" width="12.778" height="6.043" transform="translate(101.179 808.069)" fill="#284a4c"/>
    <rect id="Rectangle_269" data-name="Rectangle 269" width="12.78" height="6.044" transform="translate(382.313 802.024)" fill="#6492a3"/>
    <rect id="Rectangle_270" data-name="Rectangle 270" width="12.779" height="6.041" transform="translate(113.958 795.983)" fill="#2e4d51"/>
    <rect id="Rectangle_271" data-name="Rectangle 271" width="12.778" height="6.043" transform="translate(126.736 789.94)" fill="#294b4e"/>
    <rect id="Rectangle_272" data-name="Rectangle 272" width="12.779" height="6.043" transform="translate(369.534 783.897)" fill="#bbccd5"/>
    <rect id="Rectangle_273" data-name="Rectangle 273" width="12.778" height="6.043" transform="translate(356.756 771.811)" fill="#7ea3b2"/>
    <rect id="Rectangle_274" data-name="Rectangle 274" width="12.78" height="6.043" transform="translate(292.861 771.811)" fill="#1a4a51"/>
    <rect id="Rectangle_275" data-name="Rectangle 275" width="12.778" height="6.043" transform="translate(152.295 765.768)" fill="#40595c"/>
    <rect id="Rectangle_276" data-name="Rectangle 276" width="12.779" height="6.043" transform="translate(343.978 759.725)" fill="#538899"/>
    <rect id="Rectangle_277" data-name="Rectangle 277" width="12.78" height="6.043" transform="translate(331.198 759.725)" fill="#4d868f"/>
    <rect id="Rectangle_278" data-name="Rectangle 278" width="12.779" height="6.043" transform="translate(343.978 753.682)" fill="#e6ebe5"/>
    <g id="Group_26" data-name="Group 26">
      <path id="Path_85" data-name="Path 85" d="M586.776,1061.871v-12.086H574v-18.129H561.218v-12.086H548.439v-12.086h-12.78V995.4H522.881V983.313H510.1V971.227h-12.78V959.141H484.544V941.012H471.766V928.926H458.987V916.84h-12.78V904.754H433.428v24.172h12.779v18.129h12.78v36.258H433.428V977.27H420.65v-6.043H407.872V959.141H395.093V953.1h-12.78V941.012H369.534V928.926H356.756v18.129h12.778v18.129h12.779V977.27h12.78v12.086h12.779v12.086H420.65v12.086h12.779v12.086h12.779v18.129h12.78v18.129h12.779v12.086h12.778V1080H599.555v-18.129Z" fill="#27636f"/>
      <rect id="Rectangle_279" data-name="Rectangle 279" width="12.778" height="6.043" transform="translate(228.967 1043.742)" fill="#27636f"/>
      <rect id="Rectangle_280" data-name="Rectangle 280" width="12.779" height="6.043" transform="translate(318.419 1025.613)" fill="#27636f"/>
      <rect id="Rectangle_281" data-name="Rectangle 281" width="12.78" height="6.043" transform="translate(241.745 1007.484)" fill="#27636f"/>
      <rect id="Rectangle_282" data-name="Rectangle 282" width="12.78" height="6.043" transform="translate(292.861 977.27)" fill="#27636f"/>
      <path id="Path_86" data-name="Path 86" d="M292.861,959.141v6.043h12.78V953.1h-12.78Z" fill="#27636f"/>
      <rect id="Rectangle_283" data-name="Rectangle 283" width="12.779" height="6.043" transform="translate(280.082 941.012)" fill="#27636f"/>
      <path id="Path_87" data-name="Path 87" d="M190.63,941.012V916.84H177.852V904.754H165.073V892.669H152.295V880.582H139.516V874.54h-12.78V868.5H113.958V856.411H101.179V838.282H75.621v60.429H88.4v30.215H75.621v30.215H62.842v24.172H50.062v18.129H37.284v12.086H24.505v18.129H11.727v18.129H0V1080H190.63v-12.086h12.78v-126.9Z" fill="#27636f"/>
      <rect id="Rectangle_284" data-name="Rectangle 284" width="12.78" height="6.043" transform="translate(382.313 916.84)" fill="#27636f"/>
      <rect id="Rectangle_285" data-name="Rectangle 285" width="12.778" height="6.043" transform="translate(228.967 916.84)" fill="#27636f"/>
      <path id="Path_88" data-name="Path 88" d="M292.861,910.8v-6.043H280.082v-6.043H267.3V910.8h25.557Z" fill="#27636f"/>
      <rect id="Rectangle_286" data-name="Rectangle 286" width="12.779" height="6.043" transform="translate(11.727 898.711)" fill="#27636f"/>
      <path id="Path_89" data-name="Path 89" d="M433.428,892.669v-6.043H420.65v18.129h12.779V892.669Z" fill="#27636f"/>
      <path id="Path_90" data-name="Path 90" d="M420.65,874.54H407.872v12.086H420.65V874.54Z" fill="#27636f"/>
      <rect id="Rectangle_287" data-name="Rectangle 287" width="12.779" height="6.043" transform="translate(395.093 862.454)" fill="#27636f"/>
      <path id="Path_91" data-name="Path 91" d="M267.3,862.454V850.368H254.525V868.5H267.3Z" fill="#27636f"/>
      <rect id="Rectangle_288" data-name="Rectangle 288" width="12.779" height="6.043" transform="translate(343.978 856.411)" fill="#27636f"/>
      <rect id="Rectangle_289" data-name="Rectangle 289" width="12.778" height="6.043" transform="translate(356.756 850.368)" fill="#27636f"/>
      <rect id="Rectangle_290" data-name="Rectangle 290" width="12.78" height="6.043" transform="translate(382.313 844.325)" fill="#27636f"/>
      <rect id="Rectangle_291" data-name="Rectangle 291" width="12.78" height="6.043" transform="translate(331.198 838.282)" fill="#27636f"/>
      <rect id="Rectangle_292" data-name="Rectangle 292" width="12.779" height="6.042" transform="translate(343.978 826.197)" fill="#27636f"/>
      <rect id="Rectangle_293" data-name="Rectangle 293" width="12.779" height="6.042" transform="translate(216.188 808.069)" fill="#27636f"/>
      <rect id="Rectangle_294" data-name="Rectangle 294" width="12.778" height="6.044" transform="translate(305.641 802.024)" fill="#27636f"/>
      <rect id="Rectangle_295" data-name="Rectangle 295" width="12.779" height="6.044" transform="translate(318.419 783.895)" fill="#27636f"/>
      <rect id="Rectangle_296" data-name="Rectangle 296" width="11.727" height="12.086" transform="translate(0 765.768)" fill="#27636f"/>
      <rect id="Rectangle_297" data-name="Rectangle 297" width="12.778" height="6.043" transform="translate(305.641 765.768)" fill="#27636f"/>
      <path id="Path_92" data-name="Path 92" d="M24.505,759.725v-6.043H11.727v12.086H24.505Z" fill="#27636f"/>
    </g>
    <rect id="Rectangle_298" data-name="Rectangle 298" width="12.78" height="6.043" transform="translate(190.63 747.639)" fill="#2d5352"/>
    <rect id="Rectangle_299" data-name="Rectangle 299" width="12.779" height="6.043" transform="translate(165.073 747.639)" fill="#5f6f73"/>
    <rect id="Rectangle_300" data-name="Rectangle 300" width="12.778" height="6.043" transform="translate(50.064 747.639)" fill="#638996"/>
    <g id="Group_27" data-name="Group 27">
      <path id="Path_93" data-name="Path 93" d="M625.112,1073.957v-18.129H612.333v-24.172H599.555v-12.085H586.776v-12.086H574V995.4H561.218V977.27H548.439V965.184h-12.78V953.1H522.881V941.012H510.1V928.926h-12.78V910.8H484.544V898.711H471.766V886.626H458.987V868.5h-12.78V856.411H433.428V844.325H420.65V832.239H407.872V820.153H395.093V808.069h-12.78V789.94H369.534V777.854H356.756V765.768H318.419V783.9H331.2v24.174h12.78V826.2h12.778v24.171h12.778V874.54h12.779v24.171h12.78v24.172h-12.78V898.711H369.534V880.582H356.756V862.454H343.978V868.5H318.419v-6.043H305.641v-6.043h-12.78V844.325H280.082V832.239H267.3V820.153H254.525V808.069h-12.78V795.983H228.967V814.11H216.188v84.6h12.779V916.84h12.778v24.172h12.78v72.516h-12.78v36.257H228.967V1080h63.894v-6.043h12.78v-30.215h12.778v-18.129H331.2v-12.085h12.78v-12.086h12.778V928.926h12.778v12.086h12.779V953.1h12.78v6.043h12.779v12.086H420.65v6.043h12.778v6.043h25.559V947.055h-12.78V928.926H433.428V904.754H420.65V886.626H407.872V874.54H420.65v12.086h12.778v18.128h12.779V916.84h12.78v12.086h12.779v12.086h12.778v18.129h12.778v12.086H510.1v12.086h12.779V995.4h12.778v12.086h12.78v12.086h12.779v12.085H574v18.129h12.78v12.086h12.779V1080H637.89v-6.043Zm-242.8-229.632h12.78v6.043h-12.78ZM292.861,977.27V953.1h12.78v30.215h-12.78ZM267.3,856.411V868.5H254.525V850.368H267.3Zm12.778,84.6V910.8H267.3V880.582h12.778v24.172h12.779v42.3H280.082Zm115.011-6.043v-6.043h12.779v12.086H395.093Zm0-66.472v-6.043h12.779V868.5Z" fill="#377d8f"/>
      <path id="Path_94" data-name="Path 94" d="M331.2,850.368v6.043h12.78V844.325H331.2Z" fill="#377d8f"/>
      <rect id="Rectangle_301" data-name="Rectangle 301" width="12.779" height="6.042" transform="translate(318.419 826.197)" fill="#377d8f"/>
      <path id="Path_95" data-name="Path 95" d="M75.621,826.2V795.981H62.842v-42.3H50.062v-6.043H37.284v6.043H24.505v12.086H11.727v12.086H0V941.012H11.727v-42.3H24.505v48.344H11.727v24.172H0v78.559H11.727v-18.129H24.505v-18.129H37.284v-12.086H50.062V983.313h12.78V959.141H75.621V928.926H88.4V898.711H75.621V838.282H88.4V826.2Z" fill="#377d8f"/>
      <rect id="Rectangle_302" data-name="Rectangle 302" width="12.778" height="6.042" transform="translate(305.641 808.069)" fill="#377d8f"/>
      <path id="Path_96" data-name="Path 96" d="M292.861,789.94v12.085h12.78v-24.17h-12.78V789.94Z" fill="#377d8f"/>
      <path id="Path_97" data-name="Path 97" d="M305.641,759.725v-6.043h-12.78v-6.043H280.082v30.215h12.779V765.768h25.558v-6.043Z" fill="#377d8f"/>
    </g>
    <rect id="Rectangle_303" data-name="Rectangle 303" width="12.778" height="6.043" transform="translate(24.505 747.639)" fill="#768f99"/>
    <g id="Group_28" data-name="Group 28">
      <path id="Path_98" data-name="Path 98" d="M471.766,1073.957v-12.086H458.987v-18.129h-12.78v-18.129H433.428v-12.086H420.65v-12.086H407.872V989.356H395.093V977.27h-12.78V965.184H369.534V947.055H356.756v60.429H343.978v6.043H331.2v18.129H318.419v18.129H305.641V1080h178.9v-6.043Z" fill="#183d42"/>
      <rect id="Rectangle_304" data-name="Rectangle 304" width="11.727" height="18.129" transform="translate(0 947.055)" fill="#183d42"/>
      <path id="Path_99" data-name="Path 99" d="M241.745,941.012V922.883H228.967V898.711H216.188V808.069h12.779V777.854H216.188V765.768H203.41V753.682H190.63V741.6H177.852v12.086H165.073v18.129H152.295v6.043H139.516v18.129h-12.78v6.042H113.958V814.11H101.179V826.2H88.4v12.085h12.78v12.086h12.778v12.086h12.779V868.5h12.78v12.086h12.779v12.086h12.778v6.043h12.779V916.84H190.63v18.129h12.78v138.988H190.63V1080h25.558v-6.043h12.779v-30.215h12.778v-42.3h12.78V947.055h-12.78Z" fill="#183d42"/>
      <rect id="Rectangle_305" data-name="Rectangle 305" width="12.779" height="6.043" transform="translate(395.093 928.926)" fill="#183d42"/>
      <path id="Path_100" data-name="Path 100" d="M280.082,916.84v24.172h12.779V910.8H280.082Z" fill="#183d42"/>
      <path id="Path_101" data-name="Path 101" d="M11.727,916.84v30.215H24.505V910.8H11.727Z" fill="#183d42"/>
      <path id="Path_102" data-name="Path 102" d="M382.313,910.8v6.043h12.78V904.754h-12.78Z" fill="#183d42"/>
      <path id="Path_103" data-name="Path 103" d="M280.082,892.669V880.582H267.3v18.129h12.779Z" fill="#183d42"/>
      <path id="Path_104" data-name="Path 104" d="M369.534,886.626v12.086h12.779V880.582H369.534Z" fill="#183d42"/>
      <path id="Path_105" data-name="Path 105" d="M356.756,868.5v6.043h12.778V856.411H356.756V868.5Z" fill="#183d42"/>
      <rect id="Rectangle_306" data-name="Rectangle 306" width="11.727" height="12.086" transform="translate(0 753.682)" fill="#183d42"/>
      <path id="Path_106" data-name="Path 106" d="M305.641,783.9v18.129h12.778V826.2H331.2v12.085h12.78v18.129h12.779V832.239H343.978v-24.17H331.2V789.94H318.419V771.811H305.641V783.9Z" fill="#183d42"/>
      <rect id="Rectangle_307" data-name="Rectangle 307" width="12.78" height="6.043" transform="translate(292.861 765.768)" fill="#183d42"/>
    </g>
    <rect id="Rectangle_308" data-name="Rectangle 308" width="12.78" height="6.043" transform="translate(37.284 741.596)" fill="#7d909a"/>
    <rect id="Rectangle_309" data-name="Rectangle 309" width="12.778" height="6.043" transform="translate(177.852 735.553)" fill="#506367"/>
    <rect id="Rectangle_310" data-name="Rectangle 310" width="11.727" height="6.043" transform="translate(0 717.424)" fill="#acb1b9"/>
    <rect id="Rectangle_311" data-name="Rectangle 311" width="12.778" height="6.043" transform="translate(24.505 693.253)" fill="#d4d7dc"/>
    <rect id="Rectangle_312" data-name="Rectangle 312" width="12.78" height="6.043" transform="translate(37.284 687.209)" fill="#b1b6bd"/>
    <rect id="Rectangle_313" data-name="Rectangle 313" width="12.779" height="6.043" transform="translate(62.842 663.038)" fill="#acb1b9"/>
    <rect id="Rectangle_314" data-name="Rectangle 314" width="12.778" height="6.043" transform="translate(75.621 650.952)" fill="#acb1b9"/>
    <rect id="Rectangle_315" data-name="Rectangle 315" width="12.78" height="6.043" transform="translate(88.399 638.866)" fill="#acb1b9"/>
    <g id="Group_29" data-name="Group 29">
      <path id="Path_107" data-name="Path 107" d="M177.852,687.209V650.952H165.073V632.823H152.295V602.608H139.516v6.043h-12.78v12.086H113.958v12.086H101.179v12.086H88.4v12.086H75.621v12.086H62.842v6.043H50.062v18.129H37.284V699.3H24.505v6.043H11.727v18.129H0v30.215H24.505v-6.043H37.284V741.6H50.062v6.043h12.78v48.342H75.621V826.2H88.4v-6.044h12.78V808.069h12.778V795.981h12.779V789.94h12.78V777.854h12.779V765.768h12.778V747.639h12.779V735.553H190.63V687.209Z" fill="#969e9e"/>
    </g>
    <rect id="Rectangle_316" data-name="Rectangle 316" width="12.778" height="6.043" transform="translate(126.736 602.608)" fill="#acb1b9"/>
    <g id="Group_30" data-name="Group 30">
      <path id="Path_108" data-name="Path 108" d="M331.2,747.639V735.553H318.419V729.51H305.641v-6.043h-12.78V711.381H280.082v-6.043H267.3V699.3H254.525V687.209h-12.78V675.124H228.967V663.038H216.188V650.952H203.41v-6.043H190.63V632.823H177.852V620.737H165.073V608.651H152.295v24.172h12.778v18.129h12.779v24.172h0v6.043h0v6.043H190.63v60.43h12.78v18.129h12.778v12.086h12.779v18.129h12.778v12.086h12.78v12.085H267.3v12.086h12.779v12.086h12.779v12.086h12.78v6.043h12.778V868.5h25.558V856.411H331.2V838.282h0v-6.043H318.419V814.11H305.641v6.043h0V802.024h-12.78v-24.17H280.082V747.639h12.779v6.043h12.78v6.043h12.778v6.043H331.2v-6.043h12.78V747.639Z" fill="#fff"/>
      <rect id="Rectangle_317" data-name="Rectangle 317" width="12.779" height="6.043" transform="translate(139.516 596.565)" fill="#fff"/>
    </g>
  </g>
</svg>
