<svg xmlns="http://www.w3.org/2000/svg" width="1473.599" height="696.842" viewBox="0 0 1473.599 696.842">
  <g id="Group_37" data-name="Group 37" transform="translate(-221.964 -383.158)">
    <rect id="Rectangle_318" data-name="Rectangle 318" width="18.42" height="8.71" transform="translate(1198.224 1071.29)" fill="#1f565e"/>
    <rect id="Rectangle_319" data-name="Rectangle 319" width="18.42" height="8.71" transform="translate(1087.703 1071.29)" fill="#1c525b"/>
    <rect id="Rectangle_320" data-name="Rectangle 320" width="18.42" height="8.71" transform="translate(277.224 1071.29)" fill="#1d545c"/>
    <rect id="Rectangle_321" data-name="Rectangle 321" width="18.42" height="8.711" transform="translate(1677.143 1062.579)" fill="#6190a1"/>
    <rect id="Rectangle_322" data-name="Rectangle 322" width="18.42" height="8.711" transform="translate(1050.863 1062.579)" fill="#1a4a51"/>
    <rect id="Rectangle_323" data-name="Rectangle 323" width="18.42" height="8.711" transform="translate(1677.143 1053.868)" fill="#dee4e8"/>
    <rect id="Rectangle_324" data-name="Rectangle 324" width="18.42" height="8.711" transform="translate(314.065 1045.158)" fill="#1f535b"/>
    <rect id="Rectangle_325" data-name="Rectangle 325" width="18.42" height="8.71" transform="translate(1658.723 1036.447)" fill="#598b9d"/>
    <rect id="Rectangle_326" data-name="Rectangle 326" width="18.42" height="8.71" transform="translate(258.804 1036.447)" fill="#284f54"/>
    <rect id="Rectangle_327" data-name="Rectangle 327" width="18.42" height="8.711" transform="translate(1658.723 1027.736)" fill="#d3dce1"/>
    <rect id="Rectangle_328" data-name="Rectangle 328" width="18.42" height="8.711" transform="translate(1216.644 1027.736)" fill="#1d525a"/>
    <rect id="Rectangle_329" data-name="Rectangle 329" width="18.42" height="8.71" transform="translate(277.224 1019.026)" fill="#426167"/>
    <rect id="Rectangle_330" data-name="Rectangle 330" width="18.42" height="8.71" transform="translate(295.645 1001.605)" fill="#617c83"/>
    <rect id="Rectangle_331" data-name="Rectangle 331" width="18.42" height="8.711" transform="translate(1621.882 984.183)" fill="#759dad"/>
    <rect id="Rectangle_332" data-name="Rectangle 332" width="18.42" height="8.711" transform="translate(387.743 984.183)" fill="#1a4d54"/>
    <rect id="Rectangle_333" data-name="Rectangle 333" width="18.42" height="8.709" transform="translate(406.164 975.474)" fill="#1c525b"/>
    <rect id="Rectangle_334" data-name="Rectangle 334" width="18.42" height="8.71" transform="translate(1603.462 966.764)" fill="#6692a3"/>
    <rect id="Rectangle_335" data-name="Rectangle 335" width="18.419" height="8.71" transform="translate(1271.904 966.764)" fill="#1b4f56"/>
    <rect id="Rectangle_336" data-name="Rectangle 336" width="18.42" height="8.71" transform="translate(1124.543 966.764)" fill="#1c4e54"/>
    <rect id="Rectangle_337" data-name="Rectangle 337" width="18.42" height="8.71" transform="translate(737.723 966.764)" fill="#1a4a51"/>
    <rect id="Rectangle_338" data-name="Rectangle 338" width="18.418" height="8.71" transform="translate(1585.044 949.342)" fill="#598b9d"/>
    <rect id="Rectangle_339" data-name="Rectangle 339" width="18.419" height="8.71" transform="translate(350.905 949.342)" fill="#516e74"/>
    <rect id="Rectangle_340" data-name="Rectangle 340" width="18.42" height="8.711" transform="translate(461.424 931.921)" fill="#1b5159"/>
    <rect id="Rectangle_341" data-name="Rectangle 341" width="18.42" height="8.711" transform="translate(1198.224 923.211)" fill="#1b4950"/>
    <rect id="Rectangle_342" data-name="Rectangle 342" width="18.42" height="8.711" transform="translate(387.743 923.211)" fill="#33565c"/>
    <rect id="Rectangle_343" data-name="Rectangle 343" width="18.42" height="8.711" transform="translate(1198.224 914.5)" fill="#1d5159"/>
    <rect id="Rectangle_344" data-name="Rectangle 344" width="18.42" height="8.711" transform="translate(774.563 914.5)" fill="#1f545d"/>
    <rect id="Rectangle_345" data-name="Rectangle 345" width="18.42" height="8.711" transform="translate(406.164 914.5)" fill="#294e53"/>
    <rect id="Rectangle_346" data-name="Rectangle 346" width="18.42" height="8.711" transform="translate(1124.543 879.658)" fill="#1f565e"/>
    <rect id="Rectangle_347" data-name="Rectangle 347" width="18.42" height="8.711" transform="translate(774.563 879.658)" fill="#1a4d55"/>
    <rect id="Rectangle_348" data-name="Rectangle 348" width="18.42" height="8.71" transform="translate(1345.583 870.947)" fill="#1a484f"/>
    <rect id="Rectangle_349" data-name="Rectangle 349" width="18.42" height="8.71" transform="translate(1050.863 870.947)" fill="#1c4c52"/>
    <rect id="Rectangle_350" data-name="Rectangle 350" width="18.42" height="8.71" transform="translate(1492.943 853.526)" fill="#84a7b5"/>
    <rect id="Rectangle_351" data-name="Rectangle 351" width="18.42" height="8.711" transform="translate(571.944 844.815)" fill="#1b5159"/>
    <rect id="Rectangle_352" data-name="Rectangle 352" width="18.42" height="8.711" transform="translate(792.984 827.394)" fill="#1e555e"/>
    <rect id="Rectangle_353" data-name="Rectangle 353" width="18.42" height="8.71" transform="translate(1327.163 818.683)" fill="#1b4e55"/>
    <rect id="Rectangle_354" data-name="Rectangle 354" width="18.42" height="8.71" transform="translate(1014.023 818.683)" fill="#1a484f"/>
    <rect id="Rectangle_355" data-name="Rectangle 355" width="18.42" height="8.71" transform="translate(535.104 818.683)" fill="#617c83"/>
    <rect id="Rectangle_356" data-name="Rectangle 356" width="18.42" height="8.711" transform="translate(553.524 809.973)" fill="#4b6971"/>
    <rect id="Rectangle_357" data-name="Rectangle 357" width="18.42" height="8.709" transform="translate(1437.683 792.553)" fill="#55899b"/>
    <rect id="Rectangle_358" data-name="Rectangle 358" width="18.419" height="8.709" transform="translate(627.204 792.553)" fill="#1c4c52"/>
    <rect id="Rectangle_359" data-name="Rectangle 359" width="18.42" height="8.712" transform="translate(1308.743 783.841)" fill="#1b4e55"/>
    <rect id="Rectangle_360" data-name="Rectangle 360" width="18.42" height="8.712" transform="translate(1290.323 783.841)" fill="#1a4d55"/>
    <rect id="Rectangle_361" data-name="Rectangle 361" width="18.42" height="8.712" transform="translate(571.944 783.841)" fill="#365a60"/>
    <rect id="Rectangle_362" data-name="Rectangle 362" width="18.418" height="8.709" transform="translate(958.764 775.132)" fill="#1b4950"/>
    <rect id="Rectangle_363" data-name="Rectangle 363" width="18.42" height="8.709" transform="translate(571.944 775.132)" fill="#c1ccd4"/>
    <rect id="Rectangle_364" data-name="Rectangle 364" width="18.42" height="8.71" transform="translate(940.344 766.421)" fill="#1d525a"/>
    <rect id="Rectangle_365" data-name="Rectangle 365" width="18.42" height="8.711" transform="translate(645.623 757.711)" fill="#1d5159"/>
    <rect id="Rectangle_366" data-name="Rectangle 366" width="18.42" height="8.71" transform="translate(921.924 749)" fill="#1c4c52"/>
    <rect id="Rectangle_367" data-name="Rectangle 367" width="18.42" height="8.71" transform="translate(664.043 722.868)" fill="#1f545d"/>
    <rect id="Rectangle_368" data-name="Rectangle 368" width="18.42" height="8.71" transform="translate(608.784 722.868)" fill="#e2e7eb"/>
    <rect id="Rectangle_369" data-name="Rectangle 369" width="18.42" height="8.71" transform="translate(903.504 705.447)" fill="#40575b"/>
    <rect id="Rectangle_370" data-name="Rectangle 370" width="18.419" height="8.71" transform="translate(627.204 705.447)" fill="#2b5156"/>
    <rect id="Rectangle_371" data-name="Rectangle 371" width="18.419" height="8.711" transform="translate(627.204 696.736)" fill="#aebcc4"/>
    <rect id="Rectangle_372" data-name="Rectangle 372" width="18.42" height="8.71" transform="translate(921.924 688.026)" fill="#284a4c"/>
    <rect id="Rectangle_373" data-name="Rectangle 373" width="18.42" height="8.71" transform="translate(940.344 670.605)" fill="#2e4d51"/>
    <rect id="Rectangle_374" data-name="Rectangle 374" width="18.42" height="8.71" transform="translate(645.623 670.605)" fill="#748a93"/>
    <rect id="Rectangle_375" data-name="Rectangle 375" width="18.418" height="8.711" transform="translate(958.764 661.894)" fill="#294b4e"/>
    <rect id="Rectangle_376" data-name="Rectangle 376" width="18.42" height="8.711" transform="translate(664.043 644.473)" fill="#436269"/>
    <rect id="Rectangle_377" data-name="Rectangle 377" width="18.42" height="8.71" transform="translate(1198.224 635.762)" fill="#1a4a51"/>
    <rect id="Rectangle_378" data-name="Rectangle 378" width="18.42" height="8.711" transform="translate(995.603 627.051)" fill="#40595c"/>
    <rect id="Rectangle_379" data-name="Rectangle 379" width="18.419" height="8.71" transform="translate(1271.904 618.341)" fill="#538899"/>
    <rect id="Rectangle_380" data-name="Rectangle 380" width="18.42" height="8.71" transform="translate(1253.484 618.341)" fill="#4d868f"/>
    <g id="Group_32" data-name="Group 32">
      <path id="Path_109" data-name="Path 109" d="M1621.884,1053.868v-17.421h-18.422v-26.132h-18.42V992.894h-18.42v-17.42H1548.2V958.053h-18.42V940.63h-18.42v-17.42h-18.42V905.79h-18.42V879.658H1456.1V862.236h-18.42V844.815h-18.42V827.394h-18.42v34.842h18.42v26.132h18.42V940.63h-36.84v-8.709h-18.42v-8.711H1364V905.79h-18.42v-8.711h-18.42V879.658h-18.42V862.236h-18.42v26.132h18.42V914.5h18.42v17.421h18.42v17.421H1364v17.421h18.42v17.42h18.42V1001.6h18.42v26.132h18.42v26.132h18.42v17.421h18.42V1080H1640.3v-26.132Z" fill="#27636f"/>
      <rect id="Rectangle_381" data-name="Rectangle 381" width="18.42" height="8.711" transform="translate(1106.123 1027.736)" fill="#27636f"/>
      <rect id="Rectangle_382" data-name="Rectangle 382" width="18.42" height="8.71" transform="translate(1235.064 1001.605)" fill="#27636f"/>
      <rect id="Rectangle_383" data-name="Rectangle 383" width="18.42" height="8.709" transform="translate(1124.543 975.474)" fill="#27636f"/>
      <rect id="Rectangle_384" data-name="Rectangle 384" width="18.42" height="8.712" transform="translate(756.143 940.63)" fill="#27636f"/>
      <rect id="Rectangle_385" data-name="Rectangle 385" width="18.42" height="8.709" transform="translate(1198.224 931.921)" fill="#27636f"/>
      <path id="Path_110" data-name="Path 110" d="M1198.224,905.79v8.71h18.42V897.079h-18.42Z" fill="#27636f"/>
      <rect id="Rectangle_386" data-name="Rectangle 386" width="18.42" height="8.711" transform="translate(1179.804 879.658)" fill="#27636f"/>
      <path id="Path_111" data-name="Path 111" d="M1050.863,870.947V844.815h-18.42V827.394h-18.42V809.973H995.6v-17.42H977.184v-8.712h-18.42v-8.709H940.343V757.711H921.924V731.579h-36.84v87.1H903.5v43.553h-18.42V905.79h-18.42V940.63h-18.42v26.133h-18.42v17.42H811.4v26.132h-18.42v26.132h-18.42v26.132h-18.42V1080h294.72v-17.421h18.42V879.658h-18.42Z" fill="#27636f"/>
      <rect id="Rectangle_387" data-name="Rectangle 387" width="18.42" height="8.711" transform="translate(1327.163 844.815)" fill="#27636f"/>
      <rect id="Rectangle_388" data-name="Rectangle 388" width="18.42" height="8.711" transform="translate(1106.123 844.815)" fill="#27636f"/>
      <path id="Path_112" data-name="Path 112" d="M1198.224,836.1v-8.711H1179.8v-8.71h-18.42V836.1h36.84Z" fill="#27636f"/>
      <rect id="Rectangle_389" data-name="Rectangle 389" width="18.42" height="8.71" transform="translate(792.984 818.683)" fill="#27636f"/>
      <path id="Path_113" data-name="Path 113" d="M756.143,818.683V688.026h18.42V644.473h-18.42V670.6h-18.42v17.421H719.3v17.421h-18.42v8.71h-18.42v17.421h-18.42v34.843h-18.42v34.841H627.2v17.421h-18.42V836.1h-18.42v17.421h-18.42v8.71h-18.42v17.421H535.1v8.711h-18.42V905.79h-18.42v17.421h-18.42v17.42h-18.42v8.712H443v17.421h-18.42v17.42h-18.42v8.711h-18.42v17.421h-18.42v8.711H350.9v8.711h-18.42v26.132h-18.42v8.711h-18.42V1080H627.2v-26.132h18.419v-26.132h18.42v-17.421h18.42V992.894h18.42v-8.711H719.3v-26.13h18.42V827.394h18.42Z" fill="#27636f"/>
      <path id="Path_114" data-name="Path 114" d="M1400.843,809.973v-8.711h-18.42v26.132h18.42V809.973Z" fill="#27636f"/>
      <path id="Path_115" data-name="Path 115" d="M1382.423,783.841H1364v17.421h18.42V783.841Z" fill="#27636f"/>
      <rect id="Rectangle_390" data-name="Rectangle 390" width="18.42" height="8.71" transform="translate(1345.583 766.421)" fill="#27636f"/>
      <path id="Path_116" data-name="Path 116" d="M1161.383,766.421V749h-18.42v26.132h18.42Z" fill="#27636f"/>
      <rect id="Rectangle_391" data-name="Rectangle 391" width="18.419" height="8.711" transform="translate(1271.904 757.711)" fill="#27636f"/>
      <rect id="Rectangle_392" data-name="Rectangle 392" width="18.42" height="8.71" transform="translate(1290.323 749)" fill="#27636f"/>
      <rect id="Rectangle_393" data-name="Rectangle 393" width="18.42" height="8.711" transform="translate(1327.163 740.289)" fill="#27636f"/>
      <rect id="Rectangle_394" data-name="Rectangle 394" width="18.42" height="8.711" transform="translate(1253.484 731.579)" fill="#27636f"/>
      <rect id="Rectangle_395" data-name="Rectangle 395" width="18.419" height="8.711" transform="translate(1271.904 714.158)" fill="#27636f"/>
      <rect id="Rectangle_396" data-name="Rectangle 396" width="18.42" height="8.71" transform="translate(1087.703 688.026)" fill="#27636f"/>
      <rect id="Rectangle_397" data-name="Rectangle 397" width="18.42" height="8.711" transform="translate(1216.644 679.315)" fill="#27636f"/>
      <rect id="Rectangle_398" data-name="Rectangle 398" width="18.42" height="8.71" transform="translate(1235.064 653.183)" fill="#27636f"/>
      <path id="Path_117" data-name="Path 117" d="M792.984,635.762v-8.711h-18.42v17.421h18.42Z" fill="#27636f"/>
      <rect id="Rectangle_399" data-name="Rectangle 399" width="18.42" height="8.711" transform="translate(1216.644 627.051)" fill="#27636f"/>
      <path id="Path_118" data-name="Path 118" d="M811.4,618.341V609.63h-18.42v17.421H811.4Z" fill="#27636f"/>
    </g>
    <rect id="Rectangle_400" data-name="Rectangle 400" width="18.42" height="8.709" transform="translate(700.883 609.632)" fill="#7f939c"/>
    <rect id="Rectangle_401" data-name="Rectangle 401" width="18.42" height="8.712" transform="translate(1050.863 600.92)" fill="#2d5352"/>
    <rect id="Rectangle_402" data-name="Rectangle 402" width="18.42" height="8.712" transform="translate(1014.023 600.92)" fill="#5f6f73"/>
    <rect id="Rectangle_403" data-name="Rectangle 403" width="18.42" height="8.712" transform="translate(848.244 600.92)" fill="#638996"/>
    <g id="Group_33" data-name="Group 33">
      <path id="Path_119" data-name="Path 119" d="M1677.143,1071.29v-26.132h-18.42v-34.843H1640.3V992.894h-18.418v-17.42h-18.422V958.053h-18.42V931.921h-18.42V914.5H1548.2V897.079h-18.419V879.658h-18.421V862.236h-18.42V836.1h-18.42V818.683H1456.1V801.262h-18.42v-26.13h-18.42V757.711h-18.42V740.289h-18.42V722.868H1364V705.447h-18.42V688.026h-18.42V661.894h-18.42V644.473h-18.42V627.051h-55.259v26.132h18.42v34.843h18.42v26.132h18.419V749h18.42v34.841h18.42v34.842h18.42v34.843h-18.42V818.683h-18.42v-26.13h-18.42V766.421H1271.9v8.711h-36.84v-8.711h-18.42v-8.71h-18.42V740.289H1179.8V722.868h-18.421V705.447h-18.419V688.026h-18.421V670.6h-18.42v26.131H1087.7V818.683h18.42v26.132h18.42v34.843h18.421V984.183h-18.421v52.264h-18.42V1080h92.1v-8.71h18.42v-43.554h18.42V1001.6h18.42V984.183h18.42V966.764h18.419V862.236h18.42v17.422h18.42v17.421h18.42v8.711H1364v17.421h18.42v8.71h18.42v8.709h36.84V888.368h-18.42V862.236h-18.42V827.394h-18.42V801.262H1364V783.841h18.42v17.421h18.42v26.132h18.42v17.421h18.42v17.421h18.42v17.422h18.42V905.79h18.42v17.421h18.42V940.63h18.421v17.423H1548.2v17.421h18.419v17.42h18.42v17.421h18.42v26.132h18.422v17.421H1640.3V1080h55.261v-8.71Zm-349.98-331h18.42V749h-18.42ZM1198.224,931.921V897.079h18.42V940.63h-18.42Zm-36.841-174.21v17.421h-18.419V749h18.419ZM1179.8,879.658V836.1h-18.421V792.553H1179.8v34.841h18.42v60.974H1179.8Zm165.779-8.711v-8.711H1364v17.422h-18.42Zm0-95.815v-8.711H1364v8.711Z" fill="#377d8f"/>
      <path id="Path_120" data-name="Path 120" d="M1253.484,749v8.71h18.42V740.289h-18.42Z" fill="#377d8f"/>
      <rect id="Rectangle_404" data-name="Rectangle 404" width="18.42" height="8.711" transform="translate(1235.064 714.158)" fill="#377d8f"/>
      <path id="Path_121" data-name="Path 121" d="M885.084,705.447V670.6h-18.42V609.63h-18.42v-8.71h-18.42v8.71H811.4v17.421h-18.42v17.422H774.563v43.553h-18.42V827.394h-18.42V958.053H719.3v26.13h-18.42v8.711h-18.42v17.421h-18.42v17.421h-18.42v26.132H627.2V1080H756.143v-17.421h18.42v-26.132h18.421v-26.132H811.4V984.183h18.42V966.764h18.42V940.63h18.42V905.79h18.42V862.236H903.5V818.683h-18.42v-87.1H903.5V714.158h-18.42ZM756.143,940.63V923.211h18.42V879.658h18.421V818.683H811.4v69.685h-18.42v34.843H774.563v26.131h-18.42Zm-18.42,26.134h18.42v8.71h-18.42Z" fill="#377d8f"/>
      <rect id="Rectangle_405" data-name="Rectangle 405" width="18.42" height="8.71" transform="translate(1216.644 688.026)" fill="#377d8f"/>
      <path id="Path_122" data-name="Path 122" d="M1198.224,661.894v17.421h18.42V644.473h-18.42v17.421Z" fill="#377d8f"/>
      <path id="Path_123" data-name="Path 123" d="M1216.644,618.341V609.63h-18.42v-8.71H1179.8v43.553h18.42V627.051h36.84v-8.71Z" fill="#377d8f"/>
    </g>
    <rect id="Rectangle_406" data-name="Rectangle 406" width="18.42" height="8.712" transform="translate(811.404 600.92)" fill="#768f99"/>
    <rect id="Rectangle_407" data-name="Rectangle 407" width="18.42" height="8.712" transform="translate(756.143 600.92)" fill="#627277"/>
    <rect id="Rectangle_408" data-name="Rectangle 408" width="18.42" height="8.712" transform="translate(719.303 600.92)" fill="#436269"/>
    <g id="Group_34" data-name="Group 34">
      <path id="Path_124" data-name="Path 124" d="M1456.1,1071.29v-17.421h-18.42v-26.132h-18.42V1001.6h-18.42V984.183h-18.42v-17.42H1364V949.342h-18.42V931.921h-18.42V914.5h-18.42V888.368h-18.42v87.106H1271.9v8.709h-18.42v26.132h-18.42v26.132h-18.42V1080h257.88v-8.71Z" fill="#183d42"/>
      <path id="Path_125" data-name="Path 125" d="M756.143,931.921v8.709h18.42v-17.42h-18.42Z" fill="#183d42"/>
      <path id="Path_126" data-name="Path 126" d="M774.563,897.079V914.5h18.42V888.368h-18.42Z" fill="#183d42"/>
      <path id="Path_127" data-name="Path 127" d="M1124.543,879.658V853.526h-18.42V818.683H1087.7V688.026h18.42V644.473H1087.7V627.051h-18.42V609.63h-18.42v-17.42h-18.42v17.42h-18.42v26.132H995.6v8.71H977.184V670.6h-18.42v8.71H940.343v17.421H921.924v17.421H903.5v17.421h18.42V749h18.419v17.421h18.421v8.71h18.42v17.421H995.6v17.42h18.42v8.711h18.42v26.132h18.42v26.132h18.42V1071.29h-18.42V1080h36.84v-8.71h18.42v-43.553h18.42V966.764h18.42v-78.4h-18.42Z" fill="#183d42"/>
      <rect id="Rectangle_409" data-name="Rectangle 409" width="18.42" height="8.711" transform="translate(1345.583 862.236)" fill="#183d42"/>
      <path id="Path_128" data-name="Path 128" d="M1179.8,844.815v34.842h18.42V836.1H1179.8Z" fill="#183d42"/>
      <path id="Path_129" data-name="Path 129" d="M792.984,844.815v43.553H811.4V836.1h-18.42Z" fill="#183d42"/>
      <path id="Path_130" data-name="Path 130" d="M1327.163,836.1v8.71h18.42V827.394h-18.42Z" fill="#183d42"/>
      <path id="Path_131" data-name="Path 131" d="M1179.8,809.973v-17.42h-18.42v26.13h18.42Z" fill="#183d42"/>
      <path id="Path_132" data-name="Path 132" d="M1308.743,801.262v17.421h18.42v-26.13h-18.42Z" fill="#183d42"/>
      <path id="Path_133" data-name="Path 133" d="M1290.323,775.132v8.709h18.42v-26.13h-18.42v17.421Z" fill="#183d42"/>
      <path id="Path_134" data-name="Path 134" d="M756.143,661.894V644.473h18.42V627.051h18.42V609.63h-36.84v-8.71h-18.42v8.71H719.3v8.711h-18.42v8.71h-18.42v26.132h-18.42v26.132h-18.42v34.842H627.2v17.421h-18.42v26.132h-18.42v34.842h-18.42v26.13h-18.42v8.71H535.1V836.1h-18.42v17.421h-18.42v8.71h-18.42v17.421h-18.42v8.711H443V905.79h-18.42v17.421h-18.42v8.711h-18.42v8.709h-18.42v17.422H350.9v8.711h-18.42v17.42h-18.42v26.132h-18.42v17.421h-18.42v17.421H258.8v8.711h-18.42v17.421h-18.42V1080h55.26v-8.71h18.42v-8.711h18.42v-17.421h18.42v-17.421H350.9v-8.711h18.419v-8.711h18.42V984.183h18.42v-8.709h18.42v-8.71H443V949.342h18.42V931.921h18.42v-8.711h18.42V905.79h18.42V888.368H535.1v-8.711h18.42V862.236h18.42V844.815h18.42V836.1h18.42V818.683H627.2v-26.13h18.419V757.711h18.42V722.868h18.42v-8.711h18.42v-8.71H719.3V688.026h18.42V670.6h18.42Z" fill="#183d42"/>
      <path id="Path_135" data-name="Path 135" d="M1216.644,653.183v26.132h18.42v34.842h18.42v17.421h18.42v26.132h18.419V722.868H1271.9V688.026h-18.42V661.894h-18.42V635.762h-18.42v17.421Z" fill="#183d42"/>
      <rect id="Rectangle_410" data-name="Rectangle 410" width="18.42" height="8.711" transform="translate(1198.224 627.051)" fill="#183d42"/>
    </g>
    <rect id="Rectangle_411" data-name="Rectangle 411" width="18.42" height="8.709" transform="translate(829.824 592.211)" fill="#7d909a"/>
    <rect id="Rectangle_412" data-name="Rectangle 412" width="18.42" height="8.709" transform="translate(737.723 592.211)" fill="#657579"/>
    <rect id="Rectangle_413" data-name="Rectangle 413" width="18.42" height="8.71" transform="translate(1032.443 583.5)" fill="#506367"/>
    <rect id="Rectangle_414" data-name="Rectangle 414" width="18.42" height="8.711" transform="translate(756.143 566.079)" fill="#ced1d7"/>
    <rect id="Rectangle_415" data-name="Rectangle 415" width="18.42" height="8.711" transform="translate(774.563 557.368)" fill="#acb1b9"/>
    <rect id="Rectangle_416" data-name="Rectangle 416" width="18.42" height="8.711" transform="translate(811.404 522.526)" fill="#d4d7dc"/>
    <rect id="Rectangle_417" data-name="Rectangle 417" width="18.42" height="8.71" transform="translate(829.824 513.815)" fill="#b1b6bd"/>
    <rect id="Rectangle_418" data-name="Rectangle 418" width="18.42" height="8.711" transform="translate(866.664 478.973)" fill="#acb1b9"/>
    <rect id="Rectangle_419" data-name="Rectangle 419" width="18.42" height="8.711" transform="translate(885.084 461.551)" fill="#acb1b9"/>
    <rect id="Rectangle_420" data-name="Rectangle 420" width="18.42" height="8.711" transform="translate(903.504 444.13)" fill="#acb1b9"/>
    <g id="Group_35" data-name="Group 35">
      <path id="Path_136" data-name="Path 136" d="M1032.443,513.815V461.551h-18.42V435.42H995.6V391.868H977.184v8.711h-18.42V418H940.343V435.42H921.924v17.421H903.5v17.421h-18.42v17.421h-18.42v8.71h-18.42v26.132h-18.42v8.711H811.4v8.71h-18.42v26.132h-18.42v8.711h-18.42V583.5h-18.42v8.71h18.42v8.709h18.42v8.71H811.4v-8.71h18.42v-8.709h18.42v8.709h18.42V670.6h18.42v43.553H903.5v-8.71h18.42V688.026h18.419V670.6h18.421v-8.711h18.42V644.473H995.6V627.051h18.42V600.92h18.42V583.5h18.42V513.815Z" fill="#969e9e"/>
    </g>
    <rect id="Rectangle_421" data-name="Rectangle 421" width="18.418" height="8.711" transform="translate(958.764 391.868)" fill="#acb1b9"/>
    <g id="Group_36" data-name="Group 36">
      <path id="Path_137" data-name="Path 137" d="M1253.484,600.92V583.5h-18.42v-8.711h-18.42v-8.711h-18.42V548.658H1179.8v-8.711h-18.42v-8.71h-18.42V513.815h-18.42V496.394h-18.42V478.973H1087.7V461.551h-18.42v-8.71h-18.42V435.42h-18.42V418h-18.42v-17.42H995.6V435.42h18.42v26.132h18.42v34.842h0v8.71h0v8.711h18.42v87.1h18.42v26.132h18.42v17.421h18.42V670.6h18.42v17.421h18.42v17.421h18.42v17.421h18.42v17.421h18.42v17.421h18.42v8.711h18.42v8.71h36.84V757.711h-18.42V731.579h0v-8.71h-18.42V696.736h-18.42v8.711h0V679.315h-18.42V644.473H1179.8V600.92h18.42v8.71h18.42v8.711h18.42v8.71h18.42v-8.71h18.42V600.92Z" fill="#fff"/>
      <rect id="Rectangle_422" data-name="Rectangle 422" width="18.419" height="8.71" transform="translate(977.184 383.158)" fill="#fff"/>
    </g>
  </g>
</svg>
