<svg xmlns="http://www.w3.org/2000/svg" width="72.564" height="59" viewBox="0 0 72.564 59">
  <g id="Group_82" data-name="Group 82" transform="translate(-2315.498 -598.283)">
    <g id="Group_75" data-name="Group 75" transform="translate(2326.379 601.233)">
      <path id="Path_420" data-name="Path 420" d="M2388.932,614.258v2.95h-7.254v-2.95h-3.627v-2.95h-3.634v-2.95h-3.627V605.4h10.888v-2.95h-14.515v2.95h-3.627v2.956h-3.627v2.95h-7.258v-2.95h-3.631V605.4h-3.627v-2.95h-10.882v2.95h-3.634v20.654h3.634v2.95h3.627v2.95h3.627v5.9h3.627v2.95h3.627v2.95h3.631v2.95h3.631v2.95h7.254V646.7h3.627v-2.95h3.627V640.8h3.627v-2.95h3.634v-2.95h3.627v-2.95h3.628v-2.95h3.627v-8.849h3.628v-5.9Z" transform="translate(-2330.877 -602.452)" fill="#d84564"/>
      <rect id="Rectangle_1273" data-name="Rectangle 1273" width="3.627" height="2.95" transform="translate(54.428 5.906)" fill="#ea2f2e"/>
      <rect id="Rectangle_1274" data-name="Rectangle 1274" width="3.627" height="2.956" transform="translate(50.801 2.95)" fill="#ea2f2e"/>
    </g>
    <g id="Group_76" data-name="Group 76" transform="translate(2319.125 601.233)">
      <path id="Path_421" data-name="Path 421" d="M2353.283,647.923h-3.63v-2.95h-3.631v-2.95h-3.627v-2.95h-3.627v-5.9h-3.627v-2.95h-3.627v-2.95h-3.634V606.621h-3.627v2.956h-3.627v20.648h3.627v2.95h3.627v2.95h3.634v2.95h3.627v2.95h3.627v2.95h3.627v2.95h3.627v5.9h3.631v2.95h7.257v-5.9h-3.627Z" transform="translate(-2320.625 -603.671)" fill="#b34472"/>
      <rect id="Rectangle_1275" data-name="Rectangle 1275" width="3.634" height="2.95" transform="translate(7.254)" fill="#b34472"/>
    </g>
    <g id="Group_77" data-name="Group 77" transform="translate(2315.498 598.283)">
      <rect id="Rectangle_1276" data-name="Rectangle 1276" width="3.627" height="2.956" transform="translate(65.31 5.899)" fill="#231f20"/>
      <rect id="Rectangle_1277" data-name="Rectangle 1277" width="3.627" height="2.95" transform="translate(61.683 2.95)" fill="#231f20"/>
      <path id="Path_422" data-name="Path 422" d="M2368.907,672.112h-3.627v2.95h-3.631v2.95h3.631v-2.95h3.627v-2.95h3.627v-2.95h-3.627Z" transform="translate(-2328.994 -619.011)" fill="#231f20"/>
      <rect id="Rectangle_1278" data-name="Rectangle 1278" width="3.627" height="2.95" transform="translate(43.54 47.201)" fill="#231f20"/>
      <rect id="Rectangle_1279" data-name="Rectangle 1279" width="3.627" height="2.95" transform="translate(25.397 47.201)" fill="#231f20"/>
      <rect id="Rectangle_1280" data-name="Rectangle 1280" width="3.631" height="2.95" transform="translate(29.024 50.151)" fill="#231f20"/>
      <rect id="Rectangle_1281" data-name="Rectangle 1281" width="3.627" height="2.95" transform="translate(47.167 44.252)" fill="#231f20"/>
      <rect id="Rectangle_1282" data-name="Rectangle 1282" width="3.627" height="2.95" transform="translate(21.77 44.252)" fill="#231f20"/>
      <rect id="Rectangle_1283" data-name="Rectangle 1283" width="3.627" height="2.95" transform="translate(50.794 41.302)" fill="#231f20"/>
      <rect id="Rectangle_1284" data-name="Rectangle 1284" width="3.627" height="2.95" transform="translate(18.143 41.302)" fill="#231f20"/>
      <rect id="Rectangle_1285" data-name="Rectangle 1285" width="3.634" height="2.95" transform="translate(54.422 38.352)" fill="#231f20"/>
      <rect id="Rectangle_1286" data-name="Rectangle 1286" width="3.627" height="2.95" transform="translate(14.516 38.352)" fill="#231f20"/>
      <rect id="Rectangle_1287" data-name="Rectangle 1287" width="3.627" height="2.95" transform="translate(58.056 35.403)" fill="#231f20"/>
      <rect id="Rectangle_1288" data-name="Rectangle 1288" width="3.634" height="2.95" transform="translate(10.882 35.403)" fill="#231f20"/>
      <rect id="Rectangle_1289" data-name="Rectangle 1289" width="3.627" height="2.95" transform="translate(61.683 32.453)" fill="#231f20"/>
      <rect id="Rectangle_1290" data-name="Rectangle 1290" width="3.627" height="2.95" transform="translate(7.254 32.453)" fill="#231f20"/>
      <rect id="Rectangle_1291" data-name="Rectangle 1291" width="3.627" height="2.95" transform="translate(3.627 29.503)" fill="#231f20"/>
      <path id="Path_423" data-name="Path 423" d="M2411.428,638.762H2407.8v2.95h3.627v-2.95h3.628v-2.95h-3.628Z" transform="translate(-2342.491 -609.258)" fill="#231f20"/>
      <path id="Path_424" data-name="Path 424" d="M2412.927,610.8v5.9H2413v5.9h-.072v5.9h3.627V610.8Z" transform="translate(-2343.99 -601.943)" fill="#231f20"/>
      <path id="Path_425" data-name="Path 425" d="M2361.65,610.8v2.95h7.258V610.8h-7.258Z" transform="translate(-2328.994 -601.943)" fill="#231f20"/>
      <rect id="Rectangle_1292" data-name="Rectangle 1292" width="3.627" height="2.956" transform="translate(39.913 5.899)" fill="#231f20"/>
      <rect id="Rectangle_1293" data-name="Rectangle 1293" width="3.631" height="2.956" transform="translate(29.024 5.899)" fill="#231f20"/>
      <path id="Path_426" data-name="Path 426" d="M2319.125,609.577H2315.5v2.95h0v17.664h3.627V612.527h0v-2.95h3.627v-2.956h-3.627Z" transform="translate(-2315.498 -600.722)" fill="#231f20"/>
      <rect id="Rectangle_1294" data-name="Rectangle 1294" width="3.627" height="2.95" transform="translate(43.54 2.95)" fill="#231f20"/>
      <rect id="Rectangle_1295" data-name="Rectangle 1295" width="3.627" height="2.95" transform="translate(25.397 2.95)" fill="#231f20"/>
      <rect id="Rectangle_1296" data-name="Rectangle 1296" width="3.627" height="2.95" transform="translate(7.254 2.95)" fill="#231f20"/>
      <path id="Path_427" data-name="Path 427" d="M2393.048,598.283H2382.16v2.95h14.515v-2.95Z" transform="translate(-2334.992 -598.283)" fill="#231f20"/>
      <path id="Path_428" data-name="Path 428" d="M2341.765,598.283h-10.888v2.95h14.516v-2.95Z" transform="translate(-2319.995 -598.283)" fill="#231f20"/>
    </g>
    <path id="Path_429" data-name="Path 429" d="M2401.8,612.527h0v-2.95h-3.628v-2.956h-10.888v2.956h3.627v2.95h3.634v2.95h3.627v2.95h7.254v-5.9Z" transform="translate(-20.994 -2.438)" fill="#fff"/>
  </g>
</svg>
