<svg xmlns="http://www.w3.org/2000/svg" width="474.667" height="135.404" viewBox="0 0 474.667 135.404">
  <g id="Group_99" data-name="Group 99" transform="translate(-689 -468)">
    <g id="Group_98" data-name="Group 98" transform="translate(689 468)">
      <g id="Group_93" data-name="Group 93" transform="translate(88.012 0)">
        <path id="Path_662" data-name="Path 662" d="M777.945,840.4h-6.77v6.77H764.4v6.77h-6.77v6.77h-6.77v13.54h20.311V955.5h27.081v-6.77h6.77v-6.77h6.77v-6.77h6.77v-6.77h6.77v-67.7h6.77v-6.77h6.77v-6.77h6.77v-13.54h-67.7Z" transform="translate(-750.864 -820.091)" fill="#d9d9d9" style="mix-blend-mode: multiply;isolation: isolate"/>
        <path id="Path_663" data-name="Path 663" d="M840.23,826.411h-67.7v13.54h6.77v6.77h13.54v74.472h6.77v6.77H826.69V846.721H847v-13.54h-6.77Z" transform="translate(-752.218 -819.64)" fill="#333"/>
        <path id="Path_664" data-name="Path 664" d="M772.528,840.4H779.3v6.77h6.77V833.632H772.528Zm47.392-6.771V840.4h6.77v6.77H847V833.632Zm0,81.242h-27.08v6.77h6.77v6.771h27.08v-6.771h-6.77Z" transform="translate(-752.218 -820.091)"/>
        <path id="Path_665" data-name="Path 665" d="M765.307,819.189V832.73h20.31v81.242H812.7V832.73h20.31V819.189Z" transform="translate(-751.767 -819.189)" fill="red"/>
        <path id="Path_666" data-name="Path 666" d="M765.307,819.189v6.771h60.931v6.77h6.771V819.189Zm40.621,94.783H812.7V832.73h-6.771Z" transform="translate(-751.767 -819.189)" fill="#ff0"/>
      </g>
      <g id="Group_94" data-name="Group 94" transform="translate(379.884 0)">
        <path id="Path_667" data-name="Path 667" d="M1089.269,840.4h-6.77v6.77h-6.77v6.77h-6.77v6.77h-6.77v13.54H1082.5V955.5h27.081v-6.77h6.77v-6.77h6.77v-6.77h6.77v-6.77h6.77v-67.7h6.77v-6.77h6.77v-6.77h6.77v-13.54h-67.7Z" transform="translate(-1062.188 -820.091)" fill="#d9d9d9" style="mix-blend-mode: multiply;isolation: isolate"/>
        <path id="Path_668" data-name="Path 668" d="M1151.554,826.411h-67.7v13.54h6.77v6.77h13.54v74.472h6.77v6.77h27.081V846.721h20.311v-13.54h-6.77Z" transform="translate(-1063.542 -819.64)" fill="#333"/>
        <path id="Path_669" data-name="Path 669" d="M1083.852,840.4h6.771v6.77h6.77V833.632h-13.541Zm47.391-6.771V840.4h6.77v6.77h20.311V833.632Zm0,81.242h-27.081v6.77h6.771v6.771h27.08v-6.771h-6.77Z" transform="translate(-1063.542 -820.091)"/>
        <path id="Path_670" data-name="Path 670" d="M1076.631,819.189V832.73h20.31v81.242h27.081V832.73h20.31V819.189Z" transform="translate(-1063.09 -819.189)" fill="red"/>
        <path id="Path_671" data-name="Path 671" d="M1076.631,819.189v6.771h60.931v6.77h6.771V819.189Zm40.621,94.783h6.771V832.73h-6.771Z" transform="translate(-1063.09 -819.189)" fill="#ff0"/>
      </g>
      <g id="Group_95" data-name="Group 95" transform="translate(279.647 0)">
        <path id="Path_672" data-name="Path 672" d="M1043.283,840.4h-6.77v-6.77H982.351v6.77h-6.77v6.77h-6.77v6.77h-6.77v6.77h-6.77V955.5h27.081v-6.77h6.77v-6.77h6.77V955.5h27.081v-6.77h6.77v-6.77h6.77v-6.77h6.77v-6.77h6.77V894.564h-6.77v-6.77h-6.77v-6.77h6.77v-6.77h6.77V847.173h-6.77Z" transform="translate(-955.27 -820.091)" fill="#d9d9d9" style="mix-blend-mode: multiply;isolation: isolate"/>
        <path id="Path_673" data-name="Path 673" d="M1044.637,839.952h-6.771v-6.771h-6.77v-6.77H976.935v94.782h6.77v6.771h27.081V887.342h6.77v33.851h6.77v6.771h27.081V894.113h-6.77v-6.771h-6.771v-6.77h6.771V873.8h6.77V846.721h-6.77Zm-27.081,27.08h-6.77v-20.31h6.77Z" transform="translate(-956.624 -819.64)" fill="#333"/>
        <path id="Path_674" data-name="Path 674" d="M1004.015,914.874h-27.08v6.77h6.77v6.771h27.081v-6.771h-6.771Zm40.622,0h-27.081v6.77h6.77v6.771h27.081v-6.771h-6.77ZM1031.1,867.483v6.771h6.77v-6.771Zm-27.081-27.08h6.771v-6.771h-6.771Zm33.851,40.621h6.771v-6.77h-6.771Zm6.771-20.31h-6.771v6.77h6.771Zm0,6.77v6.771h6.77v-6.771Z" transform="translate(-956.624 -820.091)"/>
        <path id="Path_675" data-name="Path 675" d="M1030.645,866.581v-6.77h6.77V832.73h-6.77v-6.77h-6.771v-6.771H969.713v94.783h27.081V873.351h6.77v6.77h6.771v33.851h27.08V880.121h-6.77v-6.77h-6.771v-6.771Zm-20.31-6.77H996.794V832.73h13.541Z" transform="translate(-956.173 -819.189)" fill="red"/>
        <path id="Path_676" data-name="Path 676" d="M996.794,832.73h-6.771v33.851h20.311v-6.77H996.794Zm-6.771,81.242h6.771V873.351h-6.771Zm27.081-47.391v6.771h6.77v-6.771Zm13.541,47.391h6.77V880.121h-6.77Zm-6.771-88.012v6.77h6.771v-6.77Zm0,47.391v6.77h6.771v-6.77Zm-54.161-54.162v6.771h54.161v-6.771Zm60.932,13.541v27.081h6.77V832.73Z" transform="translate(-956.173 -819.189)" fill="#ff0"/>
      </g>
      <g id="Group_96" data-name="Group 96" transform="translate(0 0)">
        <path id="Path_677" data-name="Path 677" d="M745,840.4h-6.77v-6.77H697.607v6.77h-6.77v6.77h-6.77v6.77H677.3v6.77h-6.77v6.77h-6.77v6.77h-6.77v27.081h6.77v6.77h6.77v6.77h-6.77v6.77h-6.77v20.31h6.77v6.77h6.77v6.77h40.621v-6.77h6.77v-6.77h6.77v-6.77h6.77v-6.77h6.77v-6.77H745v-6.77h6.77V887.794H745v-6.77h-6.77v-6.77H745v-6.77h6.77v-20.31H745Z" transform="translate(-656.986 -820.091)" fill="#d9d9d9" style="mix-blend-mode: multiply;isolation: isolate"/>
        <path id="Path_678" data-name="Path 678" d="M746.352,839.952h-6.77v-6.771h-6.77v-6.77H692.191v6.77h-6.77v6.771H678.65v27.08h6.771V873.8h6.77v6.77h6.771v6.77H678.65v20.311h6.771v6.77h6.77v6.77h6.771v6.771h40.621v-6.771h6.77v-6.77h6.771V887.342h-6.771v-6.77h-6.77V873.8h-6.77v-6.771h20.31v-20.31h-6.771Zm-27.08,67.7H712.5V894.113h-6.77v-6.771h13.541Zm6.77-40.622H712.5v-20.31h6.771v13.541h6.77Z" transform="translate(-658.34 -819.64)" fill="#333"/>
        <path id="Path_679" data-name="Path 679" d="M699.864,887.793H713.4v-13.54h-20.31v6.77h6.771Zm47.391-27.08v-6.771h-27.08v6.771h6.77v6.77h27.081v-6.77Zm-13.54,54.161H693.093v6.77h6.771v6.771h40.621v-6.771h-6.77Zm6.77-6.77h-6.77v6.77h6.77Zm0,13.54h6.77v-6.77h-6.77Zm6.77-20.31h-6.77V908.1h6.77Zm-33.851-67.7h-6.77V840.4h6.77Zm33.851,81.242h6.771V908.1h-6.771Z" transform="translate(-659.242 -820.091)"/>
        <path id="Path_680" data-name="Path 680" d="M739.131,853.04V832.73h-6.77v-6.77H725.59v-6.771H684.97v6.771H678.2v6.77h-6.77v27.081h6.77v6.77h6.771v6.771h27.08v27.08H698.51v-20.31H671.429v20.31h6.77V907.2h6.771v6.77H725.59V907.2h6.771v-6.771h6.77v-27.08h-6.77v-6.771H725.59v-6.77H698.51V832.73h13.54v20.31Z" transform="translate(-657.889 -819.189)" fill="red"/>
        <path id="Path_681" data-name="Path 681" d="M698.51,880.121H671.429v6.77h20.31V907.2h20.31v-6.771H698.51Zm33.851,20.31h6.77v-27.08h-6.77Zm0-67.7v20.31h6.77V832.73Zm-6.771,33.851v6.771h6.771v-6.771Zm-27.08-6.77V832.73h-6.771v33.851H725.59v-6.77ZM684.97,819.189v6.771H725.59v-6.771Zm40.621,6.771v6.77h6.771v-6.77Z" transform="translate(-657.889 -819.189)" fill="#ff0"/>
      </g>
      <g id="Group_97" data-name="Group 97" transform="translate(179.41 0)">
        <path id="Path_682" data-name="Path 682" d="M936.365,840.4H929.6v-6.77H888.974v6.77H882.2v6.77h-6.77v6.77h-6.77v6.77h-6.77v6.77h-6.77v6.77h-6.77V955.5h27.081v-6.77h6.77v-6.77h6.77V955.5h27.081v-6.77h6.77v-6.77h6.77v-6.77h6.77v-6.77h6.77V847.173h-6.77Z" transform="translate(-848.353 -820.091)" fill="#d9d9d9" style="mix-blend-mode: multiply;isolation: isolate"/>
        <path id="Path_683" data-name="Path 683" d="M937.719,839.952h-6.77v-6.771h-6.771v-6.77H883.558v6.77h-6.77v6.771h-6.771v81.242h6.771v6.771h27.08V887.342h6.771v33.851h6.77v6.771H944.49V846.721h-6.771Zm-27.08,27.08h-6.771v-20.31h6.771Z" transform="translate(-849.707 -819.64)" fill="#333"/>
        <path id="Path_684" data-name="Path 684" d="M897.1,914.874H870.017v6.77h6.771v6.771h27.08v-6.771H897.1Zm0-74.472h6.77v-6.771H897.1Zm0,40.621h6.77v-6.77H897.1Zm40.621,40.621v-6.77h-27.08v6.77h6.77v6.771H944.49v-6.771Z" transform="translate(-849.707 -820.091)"/>
        <path id="Path_685" data-name="Path 685" d="M923.727,832.73v-6.77h-6.77v-6.771H876.337v6.771h-6.771v6.77H862.8v81.242h27.08V873.351h13.541v40.621H930.5V832.73Zm-20.31,27.081H889.876V832.73h13.541Z" transform="translate(-849.255 -819.189)" fill="red"/>
        <path id="Path_686" data-name="Path 686" d="M884.009,913.972h6.77V873.351h-6.77Zm6.77-81.242h-6.77v33.851h20.31v-6.77H890.779Zm33.851,0v81.242H931.4V832.73Zm-47.391-13.541v6.771H917.86v-6.771Zm40.621,6.771v6.77h6.77v-6.77Z" transform="translate(-850.158 -819.189)" fill="#ff0"/>
      </g>
    </g>
  </g>
</svg>
